<svg width="30" height="30" viewBox="0 0 30 30" fill="none" xmlns="http://www.w3.org/2000/svg">
<path d="M15 0C23.2843 0 30 6.71573 30 15C30 23.2843 23.2843 30 15 30C6.71573 30 0 23.2843 0 15C0 6.71573 6.71573 0 15 0ZM21.9477 9.70588C21.6733 9.70589 21.4331 9.80867 21.2273 10.0144L12.5029 18.7388L8.84852 15.0586C8.64265 14.8534 8.39795 14.7508 8.11523 14.7501C7.83259 14.7495 7.5876 14.8521 7.38109 15.0586C7.1746 15.2651 7.06793 15.5101 7.05969 15.7927C7.05145 16.0755 7.15022 16.3201 7.3561 16.526L11.7825 20.9524C11.9883 21.1581 12.2285 21.2609 12.5029 21.2609C12.7773 21.2609 13.0174 21.1582 13.2232 20.9524L22.668 11.4818C22.8739 11.2766 22.9774 11.0319 22.9774 10.7485C22.9773 10.4651 22.8739 10.2202 22.668 10.0144C22.4622 9.80867 22.222 9.70588 21.9477 9.70588Z" fill="#588B49"/>
</svg>
