<svg width="50" height="50" viewBox="0 0 50 50" fill="none" xmlns="http://www.w3.org/2000/svg">
<path d="M20.798 8.29485C21.1885 7.90432 21.8215 7.90432 22.212 8.29485C22.6025 8.68537 22.6025 9.31838 22.212 9.70891L14.212 17.7089C13.8215 18.0994 13.1885 18.0994 12.798 17.7089C12.4074 17.3184 12.4074 16.6854 12.798 16.2948L20.798 8.29485Z" fill="#2C2C2C"/>
<path d="M3.30875 16.6122C6.9042 13.8765 12.0052 14.0023 17.005 19.5018L17.2082 19.3602C18.1381 18.7518 22.1302 16.5645 26.505 20.5018C26.5872 20.5758 26.6675 20.6544 26.7472 20.7362C26.0386 20.911 25.3121 21.1628 24.5871 21.5097C22.8207 20.1622 21.2995 20.0925 20.2316 20.2831C19.5977 20.3963 19.0695 20.6133 18.7023 20.8026C18.521 20.8961 18.3852 20.9792 18.3029 21.0331C18.2685 21.0556 18.2439 21.0728 18.2296 21.0829L18.2306 21.0819L16.7707 22.2177L15.5246 20.8466C13.2405 18.3344 11.0993 17.2298 9.31363 16.9432C7.55548 16.6613 5.92505 17.1346 4.51968 18.204C2.17098 19.9912 -0.688132 27.3608 7.07437 37.8661C10.0087 41.837 14.0747 44.2365 17.9796 45.579C18.2861 45.6843 18.591 45.7812 18.8927 45.8729C19.1829 46.6548 19.5055 47.4357 19.8625 48.2118C15.0328 47.0254 9.36732 44.3342 5.46597 39.0546C-2.62325 28.1071 -0.286973 19.3483 3.30875 16.6122Z" fill="#2C2C2C"/>
<path d="M21.2431 34.8274C21.6153 35.2352 21.5862 35.8672 21.1787 36.2395C20.7708 36.6118 20.1389 36.5829 19.7666 36.1751L19.0136 35.3509C19.0373 34.4217 19.1204 33.5212 19.2617 32.6565L21.2431 34.8274ZM9.33101 23.263C9.73884 22.891 10.3708 22.9198 10.7431 23.3274L17.5908 30.8274C17.3938 31.6278 17.248 32.4572 17.1503 33.3098L9.26656 24.6751C8.89441 24.2672 8.92324 23.6353 9.33101 23.263Z" fill="#2C2C2C"/>
<path d="M44.5443 39.0549C37.6225 47.4613 26.7479 49.4547 22.4336 48.9073C18.1194 40.697 18.0105 32.1044 21.3551 27.0124C24.5908 22.086 29.4443 22.0862 31.6015 22.6337C34.2979 13.8757 43.106 13.8764 46.7015 16.6123C50.2972 19.3485 52 30 44.5443 39.0549Z" fill="#588B49"/>
<path d="M35.0372 10.1182C35.5252 9.85996 36.1303 10.0464 36.3887 10.5343L37.9464 13.4766C37.3072 13.6602 36.6769 13.8989 36.0645 14.1964L34.6211 11.4698C34.363 10.9818 34.5492 10.3766 35.0372 10.1182Z" fill="#2C2C2C"/>
<path d="M8.30718 5.67624C13.7132 1.30009 19.2134 0.0942523 23.2339 1.64596C27.1859 3.17133 29.3005 7.18829 28.5337 12.4438C29.8255 13.3199 31.2677 14.9814 32.0171 17.4809C31.4399 18.2188 30.9221 19.0562 30.479 19.9985C30.1225 16.3113 28.0981 14.4024 26.9898 13.8481L26.313 13.5102L26.4546 12.7671C27.3884 7.86389 25.5138 4.67016 22.5142 3.51217C19.4099 2.31403 14.6595 3.10782 9.56596 7.23093C1.57589 13.6991 2.0053 23.4638 2.00542 25.0014H0.00542171C0.00527619 23.5357 -0.500975 12.8067 8.30718 5.67624Z" fill="#2C2C2C"/>
<path d="M32.8958 1.87742C36.0146 1.73253 39.6646 3.48047 43.2767 7.86668C45.3873 10.4297 46.8916 12.8404 47.9388 15.0405C47.9299 15.0337 47.9213 15.0267 47.9124 15.02C47.0527 14.3659 46.0021 13.8515 44.8431 13.5054C44.0164 12.1313 42.9953 10.6703 41.7337 9.13816C38.3463 5.02478 35.2456 3.77086 32.9896 3.87547C30.7483 3.97965 29.0836 5.42769 28.4534 7.31785C28.2788 7.84179 27.7127 8.12527 27.1888 7.95066C26.665 7.776 26.3825 7.20985 26.5569 6.68601C27.4269 4.0764 29.7626 2.02324 32.8958 1.87742Z" fill="#2C2C2C"/>
</svg>
