<svg width="50" height="50" viewBox="0 0 50 50" fill="none" xmlns="http://www.w3.org/2000/svg">
<path d="M48.9814 23C49.5336 23.0001 49.983 23.4482 49.9609 24C49.8432 26.9417 49.2068 29.8426 48.0781 32.5674C46.8218 35.6004 44.9805 38.3564 42.6592 40.6777C40.3377 42.9992 37.581 44.8403 34.5479 46.0967C34.3599 46.1745 34.1711 46.2501 33.9814 46.3232V49C33.9814 49.5522 33.5336 49.9999 32.9814 50H16.9814C16.4292 50 15.9814 49.5523 15.9814 49V46.3232C15.7916 46.25 15.6023 46.1746 15.4141 46.0967C12.381 44.8403 9.62511 42.9991 7.30371 40.6777C4.98227 38.3563 3.14016 35.6005 1.88379 32.5674C0.755134 29.8426 0.118735 26.9417 0.000976562 24C-0.0211087 23.4482 0.429161 23 0.981445 23H48.9814Z" fill="#EF5302"/>
<path d="M18.6346 4.40764C21.8199 -0.135879 28.5509 -0.135879 31.7361 4.40764L32.2352 5.12053L33.0721 4.89592C38.4372 3.45913 43.5983 7.79287 43.1111 13.3256L43.0369 14.1645L43.7957 14.517C46.5494 15.7971 48.1459 18.3602 48.3895 21.0629H46.3807C46.1457 19.102 44.9575 17.2635 42.9529 16.3314L40.9217 15.3871L41.119 13.1508C41.4845 9.00116 37.6135 5.75094 33.5897 6.82853L31.4012 7.41447L30.0984 5.55607C27.7095 2.14844 22.6612 2.14843 20.2723 5.55607L18.9695 7.41447L16.7811 6.82853C12.7572 5.75094 8.88626 9.00116 9.25177 13.1508L9.44904 15.3871L7.41779 16.3314C5.41322 17.2635 4.22498 19.102 3.99005 21.0629H1.98126C2.21789 18.4376 3.73111 15.9441 6.34161 14.6303L6.57501 14.518L7.3338 14.1645L7.25958 13.3256C6.7724 7.79286 11.9336 3.45913 17.2986 4.89592L18.1356 5.12053L18.6346 4.40764Z" fill="#2C2C2C"/>
</svg>
