<svg width="50" height="50" viewBox="0 0 50 50" fill="none" xmlns="http://www.w3.org/2000/svg">
<path d="M48.9814 23C49.5336 23.0001 49.983 23.4482 49.9609 24C49.8432 26.9417 49.2068 29.8426 48.0781 32.5674C46.8218 35.6004 44.9805 38.3564 42.6592 40.6777C40.3377 42.9992 37.581 44.8403 34.5479 46.0967C34.3599 46.1745 34.1711 46.2501 33.9814 46.3232V49C33.9814 49.5522 33.5336 49.9999 32.9814 50H16.9814C16.4292 50 15.9814 49.5523 15.9814 49V46.3232C15.7916 46.25 15.6023 46.1746 15.4141 46.0967C12.381 44.8403 9.62511 42.9991 7.30371 40.6777C4.98227 38.3563 3.14016 35.6005 1.88379 32.5674C0.755134 29.8426 0.118735 26.9417 0.000976562 24C-0.0211087 23.4482 0.429161 23 0.981445 23H48.9814Z" fill="#F5C002"/>
<path d="M13 2V4.28348C13 5.6698 12.4623 7.00207 11.5 8V8C10.5377 8.99793 10 10.3302 10 11.7165V14" stroke="#2C2C2C" stroke-width="2" stroke-linecap="round"/>
<path d="M26 2V4.28348C26 5.6698 25.4623 7.00207 24.5 8V8C23.5377 8.99793 23 10.3302 23 11.7165V14" stroke="#2C2C2C" stroke-width="2" stroke-linecap="round"/>
<path d="M39 2V4.28348C39 5.6698 38.4623 7.00207 37.5 8V8C36.5377 8.99793 36 10.3302 36 11.7165V14" stroke="#2C2C2C" stroke-width="2" stroke-linecap="round"/>
</svg>
