<svg width="50" height="50" viewBox="0 0 50 50" fill="none" xmlns="http://www.w3.org/2000/svg">
<g clip-path="url(#clip0_512_684)">
<path d="M23.7111 14.8048C24.4886 15.3186 25.5114 15.3186 26.2889 14.8048C29.2138 12.8718 34.0848 10.7321 38.2 12.406C44.4116 14.9329 46.9999 22.5133 47 28.5776C47 34.6418 45.447 37.6741 43.8941 40.7062C42.3412 43.7384 37.1647 49.8027 31.9882 49.8027C27.0368 49.8027 26.8215 48.4171 25 48.2965C23.1785 48.4171 22.9632 49.8027 18.0118 49.8027C12.8353 49.8027 7.65882 43.7384 6.10588 40.7062C4.55298 37.6741 3 34.6418 3 28.5776C3.00007 22.5133 5.58838 14.9329 11.8 12.406C15.9152 10.7321 20.7862 12.8718 23.7111 14.8048Z" fill="#588B49"/>
<path d="M34.6048 1.02658C34.7165 1.05762 34.8044 1.14454 34.8368 1.25584C36.6876 7.6021 30.7111 13.464 24.3649 11.6132L24.3255 11.5959C24.3009 11.5811 24.2799 11.5606 24.2654 11.5358L24.2489 11.4958C22.5016 5.17866 28.2877 -0.720706 34.6048 1.02658ZM33.1181 2.76465C29.0621 2.27258 25.5203 5.80397 25.9738 9.90892C30.0983 10.419 33.6665 6.83867 33.1181 2.76465Z" fill="#2C2C2C"/>
</g>
<defs>
<clipPath id="clip0_512_684">
<rect width="50" height="50" fill="white"/>
</clipPath>
</defs>
</svg>
