<svg width="50" height="50" viewBox="0 0 50 50" fill="none" xmlns="http://www.w3.org/2000/svg">
<path d="M43.0615 40.7832C43.8772 40.9766 44.7133 41.2753 45.4932 41.7178C47.4428 42.8242 49 44.8068 49 48C49 48.5523 48.5523 49 48 49C47.4477 49 47 48.5523 47 48C47 45.5933 45.8904 44.2423 44.5068 43.457C43.753 43.0292 42.907 42.7669 42.0996 42.624C42.4874 42.0328 42.8099 41.418 43.0615 40.7832ZM48 33C48.5523 33 49 33.4477 49 34C49 34.5523 48.5523 35 48 35C46.3356 35 44.7751 35.5066 43.5811 36.0771C43.4709 35.4112 43.2843 34.7614 43.0273 34.1309C44.4044 33.5126 46.1329 33 48 33Z" fill="#2C2C2C"/>
<path d="M6.9375 40.7832C7.18906 41.418 7.51166 42.0328 7.89941 42.624C7.09235 42.7669 6.24675 43.0294 5.49316 43.457C4.10958 44.2423 3 45.5933 3 48C3 48.5523 2.55227 49 2 49C1.44772 49 1 48.5523 1 48C1 44.8068 2.55719 42.8242 4.50684 41.7178C5.28637 41.2754 6.12211 40.9766 6.9375 40.7832ZM2 33C3.86672 33 5.59472 33.5128 6.97168 34.1309C6.71478 34.7614 6.52813 35.4113 6.41797 36.0771C5.22407 35.5067 3.66399 35 2 35C1.44772 35 1 34.5523 1 34C1 33.4477 1.44772 33 2 33Z" fill="#2C2C2C"/>
<path d="M30 21.5C30.5523 21.5 31 21.9477 31 22.5V25.5146C30.3487 25.3655 29.6812 25.241 29 25.1406V22.5C29 21.9477 29.4477 21.5 30 21.5Z" fill="#2C2C2C"/>
<path d="M20 21.5C20.5523 21.5 21 21.9477 21 22.5V25.1406C20.3188 25.241 19.6513 25.3655 19 25.5146V22.5C19 21.9477 19.4477 21.5 20 21.5Z" fill="#2C2C2C"/>
<path d="M30.6971 1.20215C34.451 0.579428 38.9931 1.38261 42.618 3.77637C46.2829 6.19676 48.9997 10.2424 48.9998 15.9932C48.9998 20.9196 46.8864 24.3533 44.2127 26.6406C42.7094 27.9267 41.0344 28.8465 39.4647 29.4824C38.8552 28.9798 38.1896 28.5097 37.4744 28.0762C39.1948 27.5285 41.1945 26.5901 42.9119 25.1211C44.9982 23.3364 46.6821 20.7629 46.9588 17.0752C39.7212 17.5428 33.6595 16.1224 30.4783 14.9697C29.0737 14.4605 28.8434 12.7355 29.8026 11.7764L32.7029 8.87598L29.4715 4.20996C28.7172 3.11986 29.2092 1.44931 30.6971 1.20215ZM41.5164 5.44531C38.3776 3.37251 34.4224 2.65387 31.1727 3.15234L34.3465 7.7373C34.8966 8.53187 34.8002 9.60655 34.117 10.29L31.2772 13.1299C34.2933 14.2037 40.0766 15.5398 46.9734 15.0703C46.7055 10.5394 44.4664 7.39364 41.5164 5.44531Z" fill="#2C2C2C"/>
<path d="M7.38184 3.7832C11.0067 1.3894 15.5488 0.586272 19.3027 1.20898C20.7908 1.45609 21.2827 3.12667 20.5283 4.2168L17.2969 8.88281L20.1973 11.7832C21.1564 12.7424 20.9263 14.4674 19.5215 14.9766C16.3403 16.1293 10.2787 17.5496 3.04102 17.082C3.31775 20.7696 5.00171 23.3432 7.08789 25.1279C8.80269 26.5948 10.7989 27.533 12.5176 28.0811C11.8028 28.5148 11.1373 28.9846 10.5283 29.4873C8.96053 28.8515 7.28831 27.9317 5.78711 26.6475C3.11348 24.3602 1 20.9264 1 16C1.00013 10.2493 3.71689 6.20359 7.38184 3.7832ZM18.8271 3.15918C15.5773 2.66071 11.6222 3.37929 8.4834 5.45215C5.53339 7.40048 3.29428 10.5462 3.02637 15.0771C9.92331 15.5467 15.7065 14.2105 18.7227 13.1367L15.8828 10.2969C15.1997 9.61338 15.1032 8.53868 15.6533 7.74414L18.8271 3.15918Z" fill="#2C2C2C"/>
<ellipse cx="25" cy="37.5" rx="17" ry="11.5" fill="#387D9E"/>
</svg>
