<svg width="53" height="50" viewBox="0 0 53 50" fill="none" xmlns="http://www.w3.org/2000/svg">
<path d="M0 28C0 27.4477 0.447715 27 1 27H35C35.5523 27 36 27.4477 36 28V34C36 36.7614 33.7614 39 31 39H5C2.23858 39 0 36.7614 0 34V28Z" fill="#F5C002"/>
<path d="M51.8848 19.0067C52.4333 18.9433 52.9296 19.3362 52.9932 19.8846C53.0564 20.433 52.6636 20.9294 52.1152 20.993L37.6553 22.6639C36.3613 22.8136 35.3415 23.7727 35.0723 24.9999H33.042C33.3322 22.7517 35.12 20.9442 37.4258 20.6776L51.8848 19.0067Z" fill="#2C2C2C"/>
<path d="M7.00037 41.3584C7.02701 41.3585 7.05934 41.369 7.09021 41.4102C7.5786 42.0623 8.22122 42.9813 8.73767 43.9297C9.27127 44.9096 9.59998 45.7959 9.59998 46.418C9.59996 47.1689 9.31614 47.8815 8.82361 48.4004C8.33254 48.9176 7.67579 49.2001 7.00037 49.2002C6.32476 49.2002 5.66733 48.9178 5.17615 48.4004C4.68362 47.8815 4.3998 47.1689 4.39978 46.418C4.39978 45.7959 4.72851 44.9095 5.26208 43.9297C5.77853 42.9813 6.42116 42.0622 6.90955 41.4102C6.94058 41.3687 6.97364 41.3584 7.00037 41.3584Z" stroke="#2C2C2C" stroke-width="1.6"/>
<path d="M18.0004 41.3584C18.027 41.3585 18.0593 41.369 18.0902 41.4102C18.5786 42.0623 19.2212 42.9813 19.7377 43.9297C20.2713 44.9096 20.6 45.7959 20.6 46.418C20.6 47.1689 20.3161 47.8815 19.8236 48.4004C19.3325 48.9176 18.6758 49.2001 18.0004 49.2002C17.3248 49.2002 16.6673 48.9178 16.1761 48.4004C15.6836 47.8815 15.3998 47.1689 15.3998 46.418C15.3998 45.7959 15.7285 44.9095 16.2621 43.9297C16.7785 42.9813 17.4212 42.0622 17.9095 41.4102C17.9406 41.3687 17.9736 41.3584 18.0004 41.3584Z" stroke="#2C2C2C" stroke-width="1.6"/>
<path d="M29.0004 41.3584C29.027 41.3585 29.0593 41.369 29.0902 41.4102C29.5786 42.0623 30.2212 42.9813 30.7377 43.9297C31.2713 44.9096 31.6 45.7959 31.6 46.418C31.6 47.1689 31.3161 47.8815 30.8236 48.4004C30.3325 48.9176 29.6758 49.2001 29.0004 49.2002C28.3248 49.2002 27.6673 48.9178 27.1761 48.4004C26.6836 47.8815 26.3998 47.1689 26.3998 46.418C26.3998 45.7959 26.7285 44.9095 27.2621 43.9297C27.7785 42.9813 28.4212 42.0622 28.9095 41.4102C28.9406 41.3687 28.9736 41.3584 29.0004 41.3584Z" stroke="#2C2C2C" stroke-width="1.6"/>
</svg>
