<svg width="50" height="50" viewBox="0 0 50 50" fill="none" xmlns="http://www.w3.org/2000/svg">
<path d="M35.0225 14.0674C35.7892 14.1187 36.5395 14.2019 37.2715 14.3086C35.2121 17.1787 34 20.6979 34 24.5C34 28.3018 35.2123 31.8204 37.2715 34.6904C36.5394 34.7972 35.7892 34.8803 35.0225 34.9316C33.1086 31.9149 32 28.337 32 24.5C32 20.6627 33.1084 17.0842 35.0225 14.0674Z" fill="#2C2C2C"/>
<circle cx="40.5" cy="23.8" r="1.8" fill="#2C2C2C"/>
<path d="M30 12C41.0457 12 50 17.5964 50 24.5C50 31.4036 41.0457 37 30 37C22.56 37 16.0691 34.4607 12.624 30.6934C13.008 30.0762 13.3382 29.4328 13.6113 28.7686C14.4135 29.7917 15.5148 30.7656 16.918 31.6426C20.1721 33.6764 24.792 35 30 35C35.208 35 39.8279 33.6764 43.082 31.6426C46.3643 29.5911 48 27.0134 48 24.5C48 21.9866 46.3643 19.4089 43.082 17.3574C39.8279 15.3236 35.208 14 30 14C24.792 14 20.1721 15.3236 16.918 17.3574C15.66 18.1437 14.644 19.0074 13.8691 19.915C13.6328 19.2313 13.3387 18.5659 12.9873 17.9258C16.5132 14.3693 22.8137 12 30 12Z" fill="#2C2C2C"/>
<path d="M-1.00536e-06 13C-1.0295e-06 12.4477 0.448322 11.9963 0.999215 12.0355C4.08147 12.2547 6.99103 13.4827 9.19239 15.5147C11.6304 17.7652 13 20.8174 13 24C13 27.1826 11.6304 30.2348 9.19239 32.4853C6.99103 34.5173 4.08147 35.7453 0.999218 35.9645C0.448325 36.0037 2.15047e-06 35.5523 2.02258e-06 35L-5.24537e-07 24L-1.00536e-06 13Z" fill="#387D9E"/>
</svg>
