<svg width="50" height="50" viewBox="0 0 50 50" fill="none" xmlns="http://www.w3.org/2000/svg">
<path d="M48.9814 23C49.5336 23.0001 49.983 23.4482 49.9609 24C49.8432 26.9417 49.2068 29.8426 48.0781 32.5674C46.8218 35.6004 44.9805 38.3564 42.6592 40.6777C40.3377 42.9992 37.581 44.8403 34.5479 46.0967C34.3599 46.1745 34.1711 46.2501 33.9814 46.3232V49C33.9814 49.5522 33.5336 49.9999 32.9814 50H16.9814C16.4292 50 15.9814 49.5523 15.9814 49V46.3232C15.7916 46.25 15.6023 46.1746 15.4141 46.0967C12.381 44.8403 9.62511 42.9991 7.30371 40.6777C4.98227 38.3563 3.14016 35.6005 1.88379 32.5674C0.755134 29.8426 0.118735 26.9417 0.000976562 24C-0.0211087 23.4482 0.429161 23 0.981445 23H48.9814Z" fill="#EF5302"/>
<path d="M33 1C33.5523 1 34 1.44772 34 2V21H32V2C32 1.44772 32.4477 1 33 1Z" fill="#2C2C2C"/>
<path d="M24 3C24.5523 3 25 3.44772 25 4V21H23V4C23 3.44772 23.4477 3 24 3Z" fill="#2C2C2C"/>
<path d="M15 5C15.5523 5 16 5.44772 16 6V21H14V6C14 5.44772 14.4477 5 15 5Z" fill="#2C2C2C"/>
<path d="M6 8C6.55228 8 7 8.44772 7 9V21H5V9C5 8.44772 5.44772 8 6 8Z" fill="#2C2C2C"/>
<path d="M1.5 12.5L48 2" stroke="#2C2C2C" stroke-width="2" stroke-linecap="round"/>
</svg>
