<svg width="50" height="50" viewBox="0 0 50 50" fill="none" xmlns="http://www.w3.org/2000/svg">
<path d="M30.6855 16C31.3755 16.0002 32.0166 16.356 32.3818 16.9414L38.5684 26.8613L48.3203 28.4453C49.2884 28.6026 50 29.4391 50 30.4199V43C50 44.1046 49.1046 45 48 45H44.9355C44.9764 44.6723 45 44.3388 45 44C45 43.6612 44.9764 43.3277 44.9355 43H48V30.4199L37.8779 28.7754H2V43H5.06445C5.02358 43.3277 5 43.6612 5 44C5 44.3388 5.02358 44.6723 5.06445 45H2C0.895432 45 0 44.1046 0 43V27.6025L0.0576172 27.4404L3.66113 17.3291C3.94499 16.5325 4.69931 16.0001 5.54492 16H30.6855ZM29.0645 43C29.0236 43.3277 29 43.6612 29 44C29 44.3388 29.0236 44.6723 29.0645 45H20.9355C20.9764 44.6723 21 44.3388 21 44C21 43.6612 20.9764 43.3277 20.9355 43H29.0645ZM2.41797 26.7754H19.2002V18H5.54492L2.41797 26.7754ZM21.2002 26.7754H36.1572L30.6855 18H21.2002V26.7754Z" fill="#2C2C2C"/>
<circle cx="13" cy="44" r="6" fill="#3E2214"/>
<circle cx="37" cy="44" r="6" fill="#3E2214"/>
</svg>
