<svg width="190" height="38" viewBox="0 0 190 38" fill="none" xmlns="http://www.w3.org/2000/svg">
<path d="M40.672 0.263977V15.672H44.664L45.664 19.56H40.672V36.936H31.936V0.263977H40.672ZM1.784 0.743977H27.472V36.552H6.544C4.656 36.552 3.216 36.056 2.224 35.064C1.264 34.104 0.783997 32.68 0.783997 30.792L1.784 0.743977ZM9.52 30.984C9.52 32.264 10.16 32.904 11.44 32.904H18.736V4.39198H9.52V30.984Z" fill="white"/>
<path d="M72.92 15.24L73.92 0.311976H81.608V36.6H72.92V19.896H69.704V36.552H61.352V18.408H48.92L49.92 14.856H61.352V4.19998H48.488V0.551976H66.296C67.288 0.551976 68.104 0.871977 68.744 1.51198C69.384 2.15198 69.704 2.96798 69.704 3.95998V15.24H72.92ZM84.44 0.263977H93.416V36.936H84.44V0.263977Z" fill="white"/>
<path d="M139.112 0.743977V4.34398H108.296V10.44H138.248L137.248 14.04H108.296V20.088H139.208V23.688H103.88C102.472 23.688 101.4 23.32 100.664 22.584C99.928 21.848 99.56 20.776 99.56 19.368V0.743977H139.112ZM97.496 32.76H114.016L115.016 27.8L123.848 26.8L124.848 32.76H141.368V36.408H97.496V32.76Z" fill="white"/>
<path d="M165.224 17.4V4.63198H146.976V1.98398L173.96 0.983976V20.904H155.144V32.856H175.784V36.6H150.728C149.32 36.6 148.248 36.2 147.512 35.4C146.776 34.632 146.408 33.544 146.408 32.136V17.4H165.224ZM180.008 0.263977H188.744V36.936H180.008V0.263977Z" fill="white"/>
<rect x="27" y="1" width="2" height="36" fill="#2A35C8"/>
<rect y="1" width="2" height="33" fill="#2A35C8"/>
<rect x="1" width="27" height="2" fill="#2A35C8"/>
<rect x="165" y="5" width="2" height="13" fill="#2A35C8"/>
<rect x="173" y="1" width="2" height="20" fill="#2A35C8"/>
<rect x="179" y="1" width="2" height="35" fill="#2A35C8"/>
<rect x="188" y="1" width="2" height="35" fill="#2A35C8"/>
<rect x="145" y="18" width="2" height="16" fill="#2A35C8"/>
<rect x="146" y="33" width="2" height="2" fill="#2A35C8"/>
<rect x="147" y="34" width="2" height="2" fill="#2A35C8"/>
<rect x="148" y="35" width="2" height="2" fill="#2A35C8"/>
<rect x="175" y="33" width="2" height="4" fill="#2A35C8"/>
<rect x="154" y="21" width="2" height="12" fill="#2A35C8"/>
<rect x="149" y="36" width="27" height="2" fill="#2A35C8"/>
<rect x="155" y="32" width="21" height="2" fill="#2A35C8"/>
<rect x="146" y="1" width="2" height="4" fill="#2A35C8"/>
<rect x="147" width="27" height="2" fill="#2A35C8"/>
<rect x="180" width="9" height="2" fill="#2A35C8"/>
<rect x="180" y="35" width="9" height="2" fill="#2A35C8"/>
<rect x="147" y="4" width="19" height="2" fill="#2A35C8"/>
<rect x="146" y="17" width="20" height="2" fill="#2A35C8"/>
<rect x="155" y="20" width="19" height="2" fill="#2A35C8"/>
<rect x="8" y="5" width="2" height="28" fill="#2A35C8"/>
<rect x="18" y="5" width="2" height="28" fill="#2A35C8"/>
<rect x="47" y="1" width="2" height="4" fill="#2A35C8"/>
<rect x="61" y="5" width="2" height="10" fill="#2A35C8"/>
<rect x="61" y="19" width="2" height="18" fill="#2A35C8"/>
<rect x="101" y="22" width="2" height="2" fill="#2A35C8"/>
<rect x="115" y="26" width="9" height="2" fill="#2A35C8"/>
<rect x="98" y="31" width="17" height="2" fill="#2A35C8"/>
<rect x="124" y="31" width="17" height="2" fill="#2A35C8"/>
<rect x="98" y="36" width="43" height="2" fill="#2A35C8"/>
<rect x="114" y="27" width="2" height="5" fill="#2A35C8"/>
<rect x="123" y="27" width="2" height="5" fill="#2A35C8"/>
<rect x="97" y="32" width="2" height="5" fill="#2A35C8"/>
<rect x="140" y="32" width="2" height="5" fill="#2A35C8"/>
<rect x="100" y="21" width="2" height="2" fill="#2A35C8"/>
<rect x="137" y="10" width="2" height="4" fill="#2A35C8"/>
<rect x="138" y="20" width="2" height="4" fill="#2A35C8"/>
<rect x="107" y="5" width="2" height="5" fill="#2A35C8"/>
<rect x="107" y="14" width="2" height="6" fill="#2A35C8"/>
<rect x="108" y="4" width="32" height="2" fill="#2A35C8"/>
<rect x="108" y="9" width="30" height="2" fill="#2A35C8"/>
<rect x="108" y="19" width="30" height="2" fill="#2A35C8"/>
<rect x="102" y="23" width="36" height="2" fill="#2A35C8"/>
<rect x="108" y="13" width="30" height="2" fill="#2A35C8"/>
<rect x="139" y="1" width="2" height="4" fill="#2A35C8"/>
<rect x="99" width="41" height="2" fill="#2A35C8"/>
<rect x="98" y="1" width="2" height="21" fill="#2A35C8"/>
<rect x="93" y="1" width="2" height="36" fill="#2A35C8"/>
<rect x="81" y="1" width="2" height="36" fill="#2A35C8"/>
<rect x="83" y="1" width="2" height="36" fill="#2A35C8"/>
<rect x="84" width="10" height="2" fill="#2A35C8"/>
<rect x="9" y="4" width="10" height="2" fill="#2A35C8"/>
<rect x="9" y="32" width="10" height="2" fill="#2A35C8"/>
<rect x="73" width="9" height="2" fill="#2A35C8"/>
<rect x="69" y="1" width="2" height="15" fill="#2A35C8"/>
<rect x="72" y="1" width="2" height="15" fill="#2A35C8"/>
<rect x="70" y="15" width="3" height="2" fill="#2A35C8"/>
<rect x="69" y="19" width="2" height="18" fill="#2A35C8"/>
<rect x="72" y="19" width="2" height="18" fill="#2A35C8"/>
<rect x="1" y="34" width="2" height="2" fill="#2A35C8"/>
<rect x="3" y="35" width="2" height="2" fill="#2A35C8"/>
<rect x="5" y="36" width="23" height="2" fill="#2A35C8"/>
<rect x="31" y="36" width="10" height="2" fill="#2A35C8"/>
<rect x="62" y="36" width="8" height="2" fill="#2A35C8"/>
<rect x="73" y="36" width="9" height="2" fill="#2A35C8"/>
<rect x="84" y="36" width="10" height="2" fill="#2A35C8"/>
<rect x="30" y="1" width="2" height="36" fill="#2A35C8"/>
<rect x="31" width="10" height="2" fill="#2A35C8"/>
<rect x="48" width="22" height="2" fill="#2A35C8"/>
<rect x="40" y="1" width="2" height="15" fill="#2A35C8"/>
<rect x="48" y="4" width="14" height="2" fill="#2A35C8"/>
<rect x="49" y="14" width="13" height="2" fill="#2A35C8"/>
<rect x="49" y="18" width="13" height="2" fill="#2A35C8"/>
<rect x="70" y="18" width="3" height="2" fill="#2A35C8"/>
<rect x="40" y="21" width="2" height="15" fill="#2A35C8"/>
<rect x="44" y="16" width="2" height="4" fill="#2A35C8"/>
<rect x="48" y="15" width="2" height="4" fill="#2A35C8"/>
<rect x="40" y="19" width="5" height="2" fill="#2A35C8"/>
<rect x="40" y="15" width="5" height="2" fill="#2A35C8"/>
<rect x="28" y="2" width="1" height="35" fill="#2A35C8"/>
</svg>
