<svg width="32" height="32" viewBox="0 0 32 32" fill="none" xmlns="http://www.w3.org/2000/svg">
<path d="M16 0L19.8306 5.47544L26.2846 3.74329L25.6995 10.4L31.7569 13.2216L27.0298 17.9449L29.8564 24L23.1992 24.5797L21.4723 31.0351L16 27.2L10.5277 31.0351L8.80078 24.5797L2.14359 24L4.97015 17.9449L0.243076 13.2216L6.30052 10.4L5.7154 3.74329L12.1694 5.47544L16 0Z" fill="#F5C002"/>
<path d="M18.9918 14.502L19.3158 14.412C19.7298 14.376 20.1258 14.34 20.5398 14.34C20.5938 14.34 20.6838 14.34 20.7378 14.43C20.8998 14.682 21.0258 14.79 21.2418 14.952C21.3858 15.06 21.4218 15.168 21.3498 15.33C21.1158 15.852 20.6298 15.96 20.4318 15.978C19.8918 16.05 19.4238 16.014 18.9198 15.906C18.9018 16.212 18.8838 16.518 18.8478 16.806C18.8118 17.184 18.5058 17.922 17.8218 18.372C17.7858 18.408 17.7138 18.444 17.6418 18.426C17.6058 18.408 17.3358 18.264 17.3538 18.156C17.4438 17.49 17.4078 16.878 17.4258 16.284C17.4258 16.086 17.4258 11.982 17.1738 9.714C17.1738 9.714 17.1738 9.516 17.0478 9.462C16.3638 9.12 15.4998 8.616 15.4458 7.842C15.4458 7.734 15.5178 7.41 15.5718 7.284C16.0398 7.392 16.4178 7.392 16.7598 7.446C17.2278 7.518 17.9298 7.752 18.2898 8.004C18.9018 8.4 18.8658 9.57 18.9018 10.164C18.9738 11.55 19.0278 13.008 18.9918 14.502ZM14.8698 16.536C14.8698 16.824 15.0498 17.364 14.0778 17.634C13.8798 17.688 12.4038 18.048 12.4398 18.066C12.1878 18.048 11.7198 17.508 11.7198 17.004C11.7198 16.842 11.7738 16.752 11.8998 16.662C12.1518 16.464 13.5198 16.212 13.8978 16.212C13.9518 16.212 13.9878 16.212 13.9698 16.068C13.9158 15.654 13.9158 14.952 13.9338 14.538C13.9518 13.872 14.0238 13.206 14.0598 12.576C14.0778 12.432 14.0418 12.432 13.9698 12.378C13.5918 12.144 13.0878 11.478 12.7458 11.082C12.5298 10.83 12.2238 10.398 12.0978 10.128C12.0618 10.038 12.0798 9.948 12.1338 9.894C12.2238 9.804 12.3318 9.75 12.4218 9.732C12.5118 9.714 12.5838 9.732 12.7098 9.786C13.2498 10.002 14.8338 10.722 15.1398 10.902C15.4638 11.082 15.9138 12.126 15.8598 12.396C15.6618 13.296 15.3018 15.366 14.8698 16.536ZM13.9878 21.198C13.4658 21.198 12.6918 20.82 12.3138 20.532C12.2418 20.478 12.2238 20.442 12.2238 20.37C12.2238 20.262 12.2958 19.92 12.4398 19.92C12.8538 19.902 13.1238 19.902 13.6638 19.812C15.1398 19.56 16.1298 19.128 16.9938 18.858C17.7318 18.858 18.6678 19.596 18.6858 19.938C18.7218 20.838 18.3978 23.7 18.0018 24.654C17.8578 24.996 17.3898 25.536 17.0478 25.644C16.9218 25.68 16.8678 25.59 16.8858 25.428C16.9938 23.664 16.9578 21.612 16.9758 20.496C16.3458 20.496 15.7158 20.64 14.9418 20.838C14.5818 20.928 14.2938 21.054 13.9878 21.198ZM13.0518 13.602H13.0698C13.2858 13.602 13.5918 13.728 13.6278 13.962C13.6638 14.214 13.3218 14.808 12.8898 14.826C12.5478 14.844 12.1878 14.88 11.8278 15.006C11.8278 15.51 11.7738 15.87 11.7018 16.068C11.5218 16.518 11.1618 17.058 10.9638 17.292C10.8918 17.382 10.8198 17.4 10.7658 17.4C10.6758 17.4 10.5318 17.382 10.4058 17.346C10.2078 16.554 10.1538 15.6 10.0998 14.736C10.0998 14.61 10.1178 14.574 9.95578 14.412C9.55978 14.016 9.07378 13.224 8.85778 12.666C8.82178 12.594 9.09178 12.288 9.36178 12.288C9.43378 12.288 9.50578 12.324 9.59578 12.36C10.3158 12.684 11.4138 13.386 11.5938 13.854C11.9718 13.8 12.5298 13.638 13.0518 13.602Z" fill="#EF5302"/>
</svg>
