<svg width="480" height="78" viewBox="0 0 480 78" fill="none" xmlns="http://www.w3.org/2000/svg">
<path d="M6.30273 11H59V77H6.30273C4.10391 76.9997 2.65258 74.7123 3.58887 72.7227L16.1035 46.1289C16.738 44.7806 16.738 43.2194 16.1035 41.8711L3.58887 15.2773C2.65258 13.2877 4.10391 11.0003 6.30273 11Z" fill="#FFFDF5" stroke="#2C2C2C" stroke-width="2"/>
<path d="M473.697 11H421V77H473.697C475.896 76.9997 477.347 74.7123 476.411 72.7227L463.896 46.1289C463.262 44.7806 463.262 43.2194 463.896 41.8711L476.411 15.2773C477.347 13.2877 475.896 11.0003 473.697 11Z" fill="#FFFDF5" stroke="#2C2C2C" stroke-width="2"/>
<path d="M44 1H436C437.657 1 439 2.34315 439 4V67H41V4C41 2.34315 42.3431 1 44 1Z" fill="#FFFDF5" stroke="#2C2C2C" stroke-width="2"/>
<path d="M59 77L40 68H59V77Z" fill="#2C2C2C"/>
<path d="M421 77L440 68H421V77Z" fill="#2C2C2C"/>
<path d="M174.76 32.505V35.83H163.98V38.665H172.485V43.11C172.485 44.895 172.1 46.4 171.715 47.485C171.47 48.115 171.225 48.71 170.98 49.235H166.64C167.445 47.695 167.83 46.05 167.97 44.825C168.075 44.09 168.11 43.425 168.075 42.76H150.925V38.665H159.43V35.83H148.615V32.505H174.76ZM151.485 23.02V19.485H171.89V23.02H164.61C166.29 25.61 169.335 27.15 171.75 27.815V31C167.095 30.475 164.05 28.55 161.705 25.89C159.29 28.83 154.635 30.72 151.625 31.455V27.99C154.845 26.94 158.17 24.35 158.555 23.02H151.485ZM200.7 25.925H185.16V32.085H201.015V36.25H193.21V41.29H204.27V45.385H177.565V41.29H188.205V36.25H180.365V21.69H200.7V25.925ZM230.967 19.835V48.92H225.997V19.835H230.967ZM217.247 21.9V27.71C217.247 32.085 218.612 35.095 222.707 37.72V42.445C221.762 41.99 220.852 41.465 219.907 40.835C218.332 39.75 216.337 38.14 214.797 35.795C213.432 38.14 211.367 39.75 209.652 40.835C208.637 41.465 207.622 41.99 206.537 42.445V37.755C210.702 35.655 212.417 32.33 212.417 27.71V21.9H217.247ZM242.971 39.015H255.256C257.356 39.015 259.386 40.485 259.386 42.69V45.525C259.386 47.485 257.741 48.92 255.641 48.92H241.956C240.766 48.92 238.526 47.94 238.141 45.56V42.69C238.526 40.065 241.501 39.015 242.971 39.015ZM251.896 21.095V25.155H245.561C246.226 27.01 247.661 28.62 249.026 29.74C249.796 30.405 250.636 31 251.511 31.525V35.9C247.521 34.675 244.091 29.845 243.916 29.6C242.691 31.805 240.661 33.38 238.876 34.395C237.826 34.99 236.741 35.515 235.586 35.9V31.735C239.716 29.775 241.431 26.87 241.991 25.155H235.166V21.095H251.896ZM262.746 26.415V30.86H258.651V36.6H254.591V19.45H258.651V26.415H262.746ZM253.751 42.725H244.441C243.076 42.725 242.831 43.25 242.586 43.705L242.551 44.615C242.971 45.56 243.496 45.56 244.441 45.56H253.751C254.591 45.56 255.291 45.315 255.291 44.615V43.985C255.291 43.285 254.591 42.725 253.751 42.725ZM292.408 26.135H286.808C286.668 28.235 286.563 36.285 292.338 38.245V42.305C291.183 42.025 290.063 41.605 289.048 41.045C287.298 40.135 285.338 38.455 284.498 35.9C283.623 38.7 281.698 40.24 279.913 41.185C278.898 41.71 277.778 42.095 276.623 42.305V38.245C282.398 36.285 282.153 28.235 282.013 26.135H276.588V22.215H292.408V26.135ZM299.828 19.485V48.92H295.138V19.485H299.828ZM326.823 25.925H311.283V32.085H327.138V36.25H319.333V41.29H330.393V45.385H303.688V41.29H314.328V36.25H306.488V21.69H326.823V25.925Z" fill="#2C2C2C"/>
</svg>
