<svg width="32" height="32" viewBox="0 0 32 32" fill="none" xmlns="http://www.w3.org/2000/svg">
<path d="M16 0L19.8306 5.47544L26.2846 3.74329L25.6995 10.4L31.7569 13.2216L27.0298 17.9449L29.8564 24L23.1992 24.5797L21.4723 31.0351L16 27.2L10.5277 31.0351L8.80078 24.5797L2.14359 24L4.97015 17.9449L0.243076 13.2216L6.30052 10.4L5.7154 3.74329L12.1694 5.47544L16 0Z" fill="#EF5302"/>
<path d="M14.2763 11.082C15.2123 11.352 16.2923 11.766 16.8503 12.378C17.3363 12.918 17.2823 13.404 17.2823 14.07C17.2643 14.736 17.2643 15.186 17.2643 15.672C17.8223 15.6 18.3623 15.564 18.9023 15.582C18.8843 14.286 18.8483 13.062 18.7943 11.748C18.7763 11.514 18.7763 11.37 18.5063 11.118C18.1283 10.776 17.8403 10.524 17.0843 9.696C16.8143 9.39 16.5803 8.724 16.5623 8.526C16.5443 8.364 16.5983 8.22 16.8143 8.22C16.9403 8.22 17.8943 8.58 18.0923 8.688C18.9563 9.156 19.5503 9.444 20.1803 10.092C20.3963 10.308 20.4683 10.488 20.4683 10.938C20.4683 14.07 20.4863 16.536 20.4683 18.984C20.4503 20.82 20.2163 23.124 19.4783 24.078C19.3883 24.204 19.1543 24.204 19.1183 24.132C18.9743 23.88 18.9023 23.574 18.9023 23.304C18.9203 22.476 18.9203 21.144 18.9203 20.694C18.9023 19.416 18.9023 18.336 18.9023 17.274C18.3443 17.256 17.7863 17.238 17.2643 17.058C17.2643 17.796 17.2463 18.57 17.2103 19.668C17.1923 20.244 16.7963 21.702 16.2383 22.26C16.0583 22.458 15.6983 21.864 15.6983 21.648C15.7523 19.308 15.7523 16.842 15.6083 13.962C15.5903 13.692 15.5723 13.476 15.4283 13.332C14.9243 12.774 14.2403 12.198 14.1683 11.46C14.1503 11.28 14.2223 11.136 14.2763 11.082ZM9.52427 14.88L9.16427 14.754C9.03827 14.682 8.85827 14.142 8.76827 13.944C8.75027 13.89 8.73227 13.854 8.80427 13.764C8.89427 13.656 9.11027 13.53 9.20027 13.512C10.3703 13.62 11.7563 13.458 12.9623 13.206C13.1423 13.17 13.5383 13.404 13.6103 13.512C13.7543 13.674 13.3763 14.322 13.1063 14.448C12.9623 14.502 11.7383 14.808 10.7483 14.826C11.0183 15.366 11.1983 17.418 10.8743 17.94C11.2883 17.85 13.0523 17.652 13.5203 17.598C14.0243 17.526 14.8163 17.454 14.9963 17.508C15.1223 17.526 15.2303 17.832 15.2303 17.904C15.1583 18.138 14.5463 19.038 14.2043 19.038C13.9163 19.02 13.5203 19.02 13.0343 19.038C12.2603 19.056 10.9463 19.182 10.1003 19.326C9.90227 19.344 9.47027 18.966 9.34427 18.786C9.27227 18.696 9.32627 18.606 9.36227 18.498C9.72227 17.454 9.65027 16.068 9.50627 15.402C9.45227 15.114 9.48827 14.988 9.52427 14.88ZM11.3603 15.636C12.1523 15.582 13.2143 15.51 14.2223 15.204C14.4923 15.114 14.4743 15.366 14.4563 15.474C14.4383 15.618 13.9703 16.248 13.8803 16.32C13.5203 16.572 12.3683 16.806 11.9723 16.824C11.8823 16.824 11.8283 16.842 11.7383 16.788C11.5403 16.662 11.3423 16.176 11.2163 15.924C11.1803 15.87 11.1083 15.654 11.3603 15.636Z" fill="#F5C002"/>
</svg>
