<svg width="32" height="32" viewBox="0 0 32 32" fill="none" xmlns="http://www.w3.org/2000/svg">
<path d="M16 0L19.8306 5.47544L26.2846 3.74329L25.6995 10.4L31.7569 13.2216L27.0298 17.9449L29.8564 24L23.1992 24.5797L21.4723 31.0351L16 27.2L10.5277 31.0351L8.80078 24.5797L2.14359 24L4.97015 17.9449L0.243076 13.2216L6.30052 10.4L5.7154 3.74329L12.1694 5.47544L16 0Z" fill="#F5C002"/>
<path d="M14.822 10.722C15.758 10.992 16.838 11.406 17.396 12.018C17.882 12.558 17.828 13.044 17.828 13.71C17.81 14.502 17.828 15.114 17.828 15.726C18.224 15.69 18.836 15.636 19.232 15.636C19.376 15.636 19.538 15.636 19.682 15.654C19.664 14.34 19.61 13.098 19.52 11.748C19.502 11.514 19.502 11.37 19.232 11.118C18.854 10.776 18.62 10.524 17.864 9.696C17.594 9.39 17.36 8.724 17.342 8.526C17.324 8.364 17.378 8.22 17.594 8.22C17.72 8.22 18.674 8.58 18.872 8.688C19.736 9.156 20.33 9.444 20.96 10.092C21.176 10.308 21.248 10.488 21.248 10.938C21.248 11.496 21.248 12.414 21.266 12.918C21.32 14.628 21.338 16.464 21.32 18.984C21.302 20.82 20.996 23.124 20.258 24.078C20.168 24.204 19.934 24.204 19.898 24.132C19.754 23.88 19.682 23.574 19.682 23.304C19.7 22.476 19.7 21.144 19.7 20.694C19.682 19.416 19.682 18.318 19.682 17.274C19.034 17.256 18.368 17.238 17.828 17.058C17.828 17.832 17.81 18.642 17.774 19.668C17.756 20.244 17.342 21.702 16.784 22.26C16.604 22.458 16.244 21.864 16.244 21.648C16.298 19.308 16.28 16.482 16.136 13.602C16.118 13.332 16.1 13.116 15.956 12.972C15.452 12.414 14.786 11.838 14.714 11.1C14.696 10.92 14.768 10.776 14.822 10.722ZM10.97 17.652C12.014 17.256 13.292 16.842 14.606 16.842C15.038 16.86 15.848 17.562 15.812 17.976C15.776 18.354 14.894 18.498 14.552 18.534C12.896 18.714 11.654 18.858 9.8 19.236C9.512 19.29 9.332 19.182 9.26 18.75C9.188 18.282 9.098 18.03 9.224 17.58C9.53 16.446 9.44 15.402 9.332 14.628C9.062 14.412 8.648 14.07 8.648 13.818C8.648 13.638 9.008 13.278 9.188 13.242C9.512 13.188 9.836 13.152 10.142 13.134C11.294 13.08 11.996 12.936 12.77 12.738C13.31 12.594 13.94 13.242 13.994 13.584C14.03 13.782 13.598 14.07 13.094 14.214C12.32 14.43 11.492 14.592 10.682 14.664C10.736 14.736 10.88 14.898 10.916 15.006C11.06 15.528 11.096 17.004 10.97 17.652Z" fill="#EF5302"/>
</svg>
