<svg width="32" height="32" viewBox="0 0 32 32" fill="none" xmlns="http://www.w3.org/2000/svg">
<path d="M16 0L19.8306 5.47544L26.2846 3.74329L25.6995 10.4L31.7569 13.2216L27.0298 17.9449L29.8564 24L23.1992 24.5797L21.4723 31.0351L16 27.2L10.5277 31.0351L8.80078 24.5797L2.14359 24L4.97015 17.9449L0.243076 13.2216L6.30052 10.4L5.7154 3.74329L12.1694 5.47544L16 0Z" fill="#EF5302"/>
<path d="M17.748 9.714C17.19 9.462 16.092 8.778 16.02 7.842C16.02 7.734 16.092 7.41 16.146 7.284C16.614 7.392 16.992 7.554 17.334 7.68C18.918 8.256 19.386 8.706 19.476 10.164C19.53 11.262 19.584 12.72 19.566 14.142C20.142 13.998 21.15 13.8 21.312 14.07C21.474 14.322 21.6 14.43 21.816 14.592C21.96 14.7 21.996 14.808 21.924 14.97C21.69 15.492 21.204 15.6 21.006 15.618C20.466 15.69 20.016 15.654 19.512 15.546C19.494 15.96 19.458 16.338 19.422 16.698C19.368 17.544 18.666 18.822 18.09 18.948C17.982 18.966 17.766 18.786 17.784 18.678C17.91 18.012 18 17.184 18 16.59C18 16.392 18 11.982 17.748 9.714ZM10.512 15.474C10.53 14.016 11.934 12.954 13.59 12.954C14.886 12.954 16.02 14.034 15.912 15.438C15.786 16.842 14.58 17.976 13.104 17.976C11.736 17.976 10.512 17.076 10.512 15.474ZM16.722 19.02C17.208 19.758 17.334 20.028 17.118 20.424C16.974 20.658 16.632 21.09 16.434 21.324C16.488 21.432 16.992 21.774 17.208 21.882C17.622 22.062 18.72 22.35 19.26 22.404C19.548 22.44 20.196 23.592 19.89 23.97C19.332 24.636 17.064 23.736 16.38 23.142C16.218 22.98 15.876 22.386 15.678 22.116C15.282 22.602 14.49 23.376 13.644 23.88C13.23 24.132 11.7 24.42 11.484 23.988C11.43 23.862 12.168 23.412 12.402 23.25C14.076 22.044 15.3 20.316 15.39 19.974C15.264 19.632 14.868 18.642 14.778 18.228C14.724 17.976 14.67 17.868 14.958 17.814C15.156 17.778 15.642 17.832 15.822 18.012C16.146 18.3 16.47 18.678 16.722 19.02ZM14.292 11.154L15.66 11.046C16.146 11.01 16.524 11.478 16.686 11.766C16.758 11.892 16.812 12 16.686 12.126C16.56 12.252 16.056 12.504 15.534 12.45C13.626 12.324 12.816 12.342 11.25 12.504C11.106 12.522 10.728 12.612 10.566 12.612C10.224 12.612 9.45 11.874 9.36 11.658C9.324 11.568 9.288 11.424 9.324 11.316C9.342 11.244 9.414 11.244 9.468 11.244C10.044 11.244 10.638 11.28 11.25 11.262C11.916 11.262 13.5 11.208 14.292 11.154ZM13.392 14.088C12.636 14.106 11.772 14.718 11.826 15.456C11.88 16.194 12.528 16.752 13.266 16.698C13.788 16.662 14.292 16.32 14.544 15.798C14.94 15.006 14.328 14.088 13.392 14.088ZM11.79 8.634C11.952 8.454 12.78 8.634 12.996 8.688C13.302 8.778 14.256 9.3 14.364 9.804C14.4 9.984 14.382 10.416 14.31 10.524C14.094 10.848 13.122 10.632 12.816 10.344C12.618 10.146 11.61 8.814 11.79 8.634Z" fill="#F5C002"/>
</svg>
