<svg width="30" height="30" viewBox="0 0 30 30" fill="none" xmlns="http://www.w3.org/2000/svg">
<circle cx="15" cy="15" r="15" fill="#387D9E"/>
<path d="M16.28 17.84C17.072 17.966 17.486 18.344 17.81 18.812C18.188 19.388 18.26 20.072 18.044 20.774C17.81 21.566 17.198 22.232 16.46 22.538C16.136 22.664 15.758 22.736 15.362 22.736C14.534 22.736 13.688 22.43 13.274 21.746C13.004 21.296 12.86 20.828 12.86 20.378C12.806 19.046 13.922 17.894 15.47 17.804C15.182 17.12 15.074 15.662 15.02 15.068C13.508 15.068 12.014 15.086 10.376 14.996C10.052 14.978 9.71 14.96 9.494 14.852C9.17 14.69 8.774 14.222 8.648 14.006C8.594 13.88 8.648 13.682 8.81 13.664C9.296 13.628 10.304 13.646 11.384 13.628C13.742 13.592 15.938 13.556 18.422 13.448C18.818 13.43 19.088 13.412 19.268 13.412C19.502 13.412 19.61 13.61 19.61 13.736C19.61 13.97 19.16 14.762 19.106 14.816C18.962 14.96 18.782 14.996 18.458 14.996C18.332 14.996 16.928 14.996 16.766 15.014C16.73 15.59 16.604 17.174 16.28 17.84ZM15.092 10.55L15.146 10.37C14.264 11.144 13.382 11.864 12.914 12.152C12.392 12.476 12.05 12.584 11.69 12.602C11.51 12.62 10.646 12.62 10.52 12.494C10.448 12.44 10.358 12.224 10.394 12.17C10.502 12.08 10.808 11.99 11.096 11.774C12.86 10.514 13.634 9.974 14.75 8.912C13.976 9.164 12.806 9.218 12.41 9.056C12.122 8.966 11.492 8.444 11.276 8.192C11.24 8.156 11.222 8.102 11.258 8.048C11.348 7.958 11.438 7.796 11.474 7.742C11.546 7.688 11.6 7.688 11.672 7.706C13.022 7.904 15.254 7.706 16.496 7.22C16.64 7.166 16.838 7.22 16.892 7.256C17 7.328 17.36 7.562 17.45 7.724C17.504 7.85 17.54 7.994 17.396 8.138C17.072 8.57 16.424 9.218 15.704 9.866C16.496 10.298 17.558 10.388 18.152 10.532C18.386 10.586 18.854 11.558 18.692 11.882C18.638 12.044 18.224 12.206 18.08 12.224C17.234 12.35 15.722 11.504 15.164 10.946C15.056 10.838 15.02 10.694 15.092 10.55ZM14.462 20.81C14.786 21.206 15.2 21.386 15.596 21.332C16.1 21.296 16.532 20.954 16.73 20.468C16.856 20.198 16.856 19.91 16.712 19.622C16.586 19.352 16.316 19.154 15.992 19.064C15.902 19.046 15.812 19.028 15.74 19.028C15.362 19.028 14.984 19.172 14.75 19.352C14.48 19.55 14.3 19.802 14.264 20.054C14.21 20.324 14.3 20.558 14.462 20.81Z" fill="#F5C002"/>
</svg>
