<svg width="30" height="30" viewBox="0 0 30 30" fill="none" xmlns="http://www.w3.org/2000/svg">
<circle cx="15" cy="15" r="15" fill="#387D9E"/>
<path d="M12.3662 10.882C12.4022 9.154 14.0582 7.912 16.0382 7.912C17.1362 7.912 17.8742 8.344 18.4322 9.28C19.3862 10.9 18.3062 13.078 16.5962 13.69C15.3542 14.122 13.4642 13.816 12.7982 12.556C12.4922 11.98 12.3482 11.404 12.3662 10.882ZM14.1842 18.784C14.1122 18.226 14.0582 17.56 14.0582 17.434C14.0582 17.38 14.0582 17.308 14.0222 17.272C13.6622 16.912 13.0682 16.444 12.8342 15.976C12.7802 15.85 12.8882 15.796 12.9422 15.778C13.3022 15.652 13.9862 15.724 14.1662 15.796C14.4542 15.886 15.3002 16.3 15.5162 16.57C15.6062 16.678 15.6242 16.75 15.6422 16.984C15.6602 17.326 15.6422 18.118 15.5702 18.748C15.9302 18.748 16.2722 18.748 16.6142 18.766C16.5962 17.812 16.6322 16.174 16.6322 16.03C16.6322 15.976 16.6322 15.904 16.5962 15.868C16.2362 15.508 15.6422 15.04 15.4082 14.572C15.3542 14.446 15.4622 14.392 15.5162 14.374C15.8762 14.248 16.5602 14.32 16.7402 14.392C17.0282 14.482 18.0182 15.004 18.2342 15.274C18.3242 15.382 18.3602 15.454 18.3602 15.688C18.3602 16.228 18.1802 17.866 18.0182 18.838C18.9902 18.91 19.8902 19.036 20.5742 19.234C20.8082 19.306 21.4022 19.918 21.4922 20.296C21.5102 20.368 21.3482 20.656 21.2222 20.746C21.1142 20.818 20.5922 20.962 20.2862 20.962C20.2502 20.962 19.3322 20.692 19.3502 20.692C18.7202 20.494 17.2982 20.278 16.4522 20.242C14.5442 20.17 13.2302 20.188 10.2242 20.638C10.0082 20.674 9.70224 20.494 9.66624 20.422C9.63024 20.314 9.75624 19.882 9.86424 19.792C10.1702 19.54 11.3402 19.036 11.7722 18.982C12.5102 18.892 13.3202 18.82 14.1842 18.784ZM16.2722 9.28C15.7502 9.136 15.0482 9.316 14.5802 9.622C13.8782 10.054 13.6262 10.846 14.1122 11.548C14.4722 12.052 14.9942 12.43 15.6242 12.376C16.2542 12.322 16.8842 11.926 17.2082 11.278C17.6042 10.45 17.1542 9.568 16.2722 9.28Z" fill="#F5C002"/>
</svg>
