<svg width="1440" height="1024" viewBox="0 0 1440 1024" fill="none" xmlns="http://www.w3.org/2000/svg">
<rect width="1440" height="1024" fill="#FFFDF5"/>
<path d="M572 153.8C580.395 153.8 587.2 160.605 587.2 169V247C587.2 255.395 580.395 262.2 572 262.2H104C95.6053 262.2 88.7998 255.395 88.7998 247V153.8H572Z" stroke="#2C2C2C" stroke-width="1.6"/>
<path d="M702 592.8C710.395 592.8 717.2 599.605 717.2 608V686C717.2 694.395 710.395 701.2 702 701.2H234C225.605 701.2 218.8 694.395 218.8 686V592.8H702Z" stroke="#2C2C2C" stroke-width="1.6"/>
<path d="M702 746.8C710.395 746.8 717.2 753.605 717.2 762V840C717.2 848.395 710.395 855.2 702 855.2H234C225.605 855.2 218.8 848.395 218.8 840V746.8H702Z" stroke="#2C2C2C" stroke-width="1.6"/>
<path d="M832 153.8C840.395 153.8 847.2 160.605 847.2 169V247C847.2 255.395 840.395 262.2 832 262.2H624C615.605 262.2 608.8 255.395 608.8 247V153.8H832Z" stroke="#2C2C2C" stroke-width="1.6"/>
<path d="M610.025 304.987C610.312 304.978 610.773 305.121 611.576 305.485C612.302 305.815 613.312 306.326 614.436 306.806C616.752 307.795 619.861 308.8 624 308.8H702C706.054 308.8 709.101 308.388 711.341 308.131C712.471 308.001 713.359 307.916 714.079 307.93C714.798 307.943 715.263 308.055 715.592 308.25C716.213 308.619 716.702 309.513 716.954 312.085C717.199 314.591 717.2 318.354 717.2 324V532C717.2 540.395 710.395 547.2 702 547.2H364C355.605 547.2 348.8 540.395 348.8 532V454C348.8 445.605 355.605 438.8 364 438.8H574C593.219 438.8 608.8 423.219 608.8 404V324C608.8 316.104 608.8 311.211 609.047 308.277C609.171 306.797 609.353 305.917 609.574 305.421C609.68 305.185 609.772 305.087 609.825 305.047C609.866 305.015 609.919 304.991 610.025 304.987Z" stroke="#2C2C2C" stroke-width="1.6"/>
<path d="M312 547.2L234 547.2C225.605 547.2 218.8 540.395 218.8 532L218.8 324L218.804 321.182C218.815 318.554 218.862 316.484 219.045 314.838C219.289 312.637 219.764 311.367 220.565 310.565C221.367 309.764 222.637 309.29 224.838 309.045C227.033 308.801 229.98 308.8 234 308.8L572 308.8C580.395 308.8 587.2 315.605 587.2 324L587.2 402C587.2 410.395 580.395 417.2 572 417.2L362 417.2C342.78 417.2 327.2 432.781 327.2 452L327.2 532C327.2 540.395 320.395 547.2 312 547.2Z" stroke="#2C2C2C" stroke-width="1.6"/>
<path d="M847.2 308.8V840C847.2 848.395 840.395 855.2 832 855.2H754C745.605 855.2 738.8 848.395 738.8 840V308.8H847.2Z" stroke="#2C2C2C" stroke-width="1.6"/>
<path d="M197.2 308.8V840C197.2 848.395 190.395 855.2 182 855.2H104C95.6053 855.2 88.7998 848.395 88.7998 840V308.8H197.2Z" stroke="#2C2C2C" stroke-width="1.6"/>
<path d="M88 139C88 133.477 92.4772 129 98 129H188C193.523 129 198 133.477 198 139V154C198 159.523 193.523 164 188 164H88V139Z" fill="#387D9E"/>
<path d="M125.134 139.834C125.849 139.834 126.494 140.024 127.068 140.405C127.642 140.786 128.111 141.331 128.474 142.04C128.837 142.743 129.063 143.572 129.151 144.527H132.183V138.674H134.117V154.582H132.183V146.109H129.177C129.107 147.117 128.893 147.996 128.536 148.746C128.178 149.49 127.706 150.064 127.121 150.469C126.535 150.867 125.872 151.066 125.134 151.066C124.337 151.066 123.631 150.838 123.016 150.381C122.401 149.924 121.92 149.271 121.575 148.421C121.229 147.571 121.056 146.578 121.056 145.441C121.056 144.316 121.229 143.332 121.575 142.488C121.92 141.639 122.401 140.985 123.016 140.528C123.637 140.065 124.343 139.834 125.134 139.834ZM125.134 141.592C124.695 141.592 124.308 141.747 123.974 142.058C123.64 142.362 123.382 142.805 123.201 143.385C123.019 143.959 122.931 144.645 122.937 145.441C122.931 146.244 123.019 146.936 123.201 147.516C123.382 148.096 123.64 148.541 123.974 148.852C124.308 149.156 124.695 149.309 125.134 149.309C125.574 149.309 125.957 149.156 126.286 148.852C126.62 148.541 126.877 148.096 127.059 147.516C127.246 146.936 127.343 146.244 127.349 145.441C127.343 144.645 127.246 143.956 127.059 143.376C126.877 142.796 126.62 142.354 126.286 142.049C125.957 141.744 125.574 141.592 125.134 141.592ZM143.261 142.488C143.255 143.467 143.416 144.419 143.744 145.345C144.072 146.271 144.547 147.094 145.168 147.814C145.789 148.535 146.519 149.074 147.356 149.432L146.196 150.996C145.3 150.58 144.518 149.974 143.85 149.177C143.188 148.38 142.669 147.451 142.294 146.391C141.919 147.539 141.389 148.547 140.703 149.414C140.023 150.275 139.212 150.926 138.269 151.365L137.073 149.73C137.935 149.361 138.682 148.805 139.314 148.061C139.953 147.311 140.439 146.452 140.773 145.485C141.107 144.513 141.274 143.514 141.274 142.488V139.957H143.261V142.488ZM150.468 154.582H148.499V138.674H150.468V154.582ZM159.401 141.539C159.401 142.201 159.542 142.831 159.823 143.429C160.11 144.026 160.535 144.557 161.097 145.02C161.66 145.477 162.342 145.828 163.145 146.074L162.213 147.604C161.34 147.334 160.585 146.93 159.946 146.391C159.313 145.852 158.818 145.216 158.461 144.483C158.103 145.333 157.59 146.071 156.922 146.698C156.254 147.325 155.452 147.797 154.514 148.113L153.53 146.566C154.362 146.291 155.071 145.898 155.657 145.389C156.243 144.873 156.685 144.284 156.984 143.622C157.283 142.96 157.432 142.271 157.432 141.557V141.363H154.075V139.781H162.706V141.363H159.401V141.539ZM166.239 142.488H168.454V144.088H166.239V148.148H164.288V138.674H166.239V142.488ZM161.071 148.5C162.161 148.5 163.104 148.62 163.901 148.86C164.704 149.095 165.319 149.438 165.747 149.889C166.174 150.34 166.391 150.879 166.397 151.506C166.391 152.139 166.171 152.684 165.738 153.141C165.31 153.598 164.698 153.946 163.901 154.187C163.104 154.427 162.161 154.547 161.071 154.547C159.969 154.547 159.014 154.427 158.206 154.187C157.397 153.946 156.776 153.598 156.342 153.141C155.909 152.684 155.692 152.139 155.692 151.506C155.692 150.879 155.909 150.34 156.342 149.889C156.776 149.438 157.397 149.095 158.206 148.86C159.014 148.62 159.969 148.5 161.071 148.5ZM161.071 150.029C159.975 150.029 159.129 150.155 158.531 150.407C157.939 150.659 157.643 151.025 157.643 151.506C157.643 151.998 157.939 152.373 158.531 152.631C159.129 152.889 159.975 153.018 161.071 153.018C162.167 153.018 163.004 152.889 163.585 152.631C164.171 152.373 164.463 151.998 164.463 151.506C164.463 151.025 164.171 150.659 163.585 150.407C163.004 150.155 162.167 150.029 161.071 150.029Z" fill="white"/>
<path d="M88 293C88 287.477 92.4772 283 98 283H188C193.523 283 198 287.477 198 293V318H88V293Z" fill="#EF5302"/>
<path d="M133.099 308.582H131.148V304.398H122.271V302.834H133.099V308.582ZM133.099 302.061H131.148V298.123H127.949V301.129H120.478V293.834H127.949V296.541H131.148V292.674H133.099V302.061ZM122.429 299.582H126.015V295.416H122.429V299.582ZM149.556 308.564H147.604V300.479H144.247V298.879H147.604V292.674H149.556V308.564ZM144.317 294.361C144.312 296.014 144.083 297.522 143.632 298.888C143.187 300.253 142.437 301.513 141.382 302.667C140.333 303.815 138.927 304.826 137.163 305.699L136.144 304.17C138.153 303.186 139.647 302.02 140.626 300.672C141.604 299.324 142.179 297.736 142.349 295.908H136.882V294.361H144.317ZM165.942 308.582H164.008V292.674H165.942V308.582ZM161.055 300.021H155.588V303.221C156.93 303.209 158.161 303.162 159.28 303.08C160.405 302.998 161.553 302.857 162.725 302.658L162.901 304.258C161.641 304.48 160.402 304.63 159.183 304.706C157.964 304.782 156.561 304.82 154.973 304.82H153.585V298.475H159.069V295.645H153.567V294.062H161.055V300.021Z" fill="white"/>
<path d="M218 293C218 287.477 222.477 283 228 283H318C323.523 283 328 287.477 328 293V308C328 313.523 323.523 318 318 318H218V293Z" fill="#387D9E"/>
<path d="M258.669 295.451C258.669 296.494 258.643 297.481 258.59 298.413C258.543 299.339 258.423 300.402 258.23 301.604L256.296 301.445C256.466 300.367 256.578 299.395 256.63 298.527C256.689 297.66 256.721 296.781 256.727 295.891H250.496V294.326H258.669V295.451ZM254.662 303.555C256.466 303.484 258.066 303.361 259.46 303.186L259.566 304.645C257.117 305.031 254.117 305.225 250.566 305.225H249.845L249.652 303.66C251.023 303.648 252.048 303.634 252.728 303.616V298.861H254.662V303.555ZM262.255 299.143H264.558V300.795H262.255V308.564H260.287V292.674H262.255V299.143ZM272.981 298.527H274.827V292.955H276.69V307.791H274.827V300.109H272.981V304.469H266.741V294.396H272.981V298.527ZM268.569 302.922H271.153V295.943H268.569V302.922ZM279.96 308.564H278.079V292.674H279.96V308.564ZM295.977 308.564H294.008V292.674H295.977V308.564ZM291.231 294.361C291.231 296.887 290.66 299.104 289.517 301.015C288.375 302.919 286.479 304.498 283.831 305.752L282.811 304.188C284.856 303.215 286.394 302.052 287.425 300.698C288.463 299.339 289.069 297.742 289.245 295.908H283.62V294.361H291.231Z" fill="white"/>
<path d="M218 578C218 572.477 222.477 568 228 568H318C323.523 568 328 572.477 328 578V593C328 598.523 323.523 603 318 603H218V578Z" fill="#F5C002"/>
<path d="M258.072 578.992C258.072 579.66 258.306 580.311 258.775 580.943C259.249 581.576 259.912 582.118 260.761 582.569C261.617 583.021 262.595 583.316 263.697 583.457L262.923 585.039C261.587 584.84 260.404 584.43 259.372 583.809C258.341 583.182 257.565 582.417 257.043 581.515C256.522 582.417 255.748 583.182 254.723 583.809C253.698 584.43 252.523 584.84 251.199 585.039L250.425 583.457C251.515 583.316 252.485 583.021 253.334 582.569C254.184 582.118 254.843 581.576 255.312 580.943C255.781 580.311 256.015 579.66 256.015 578.992V578.184H258.072V578.992ZM264.277 588.027H257.966V593.564H256.033V588.027H249.792V586.41H264.277V588.027ZM279.925 593.564H278.062V577.674H279.925V593.564ZM276.69 592.791H274.845V584.793H272.56V583.211H274.845V577.973H276.69V592.791ZM271.153 582.016C271.153 582.947 271.268 583.841 271.496 584.696C271.73 585.552 272.088 586.328 272.568 587.025C273.055 587.723 273.661 588.279 274.388 588.695L273.228 590.137C272.513 589.709 271.906 589.138 271.408 588.423C270.91 587.702 270.518 586.873 270.23 585.936C269.943 586.949 269.542 587.852 269.026 588.643C268.511 589.428 267.89 590.049 267.163 590.506L265.968 589.047C266.706 588.602 267.321 588.007 267.813 587.263C268.312 586.519 268.678 585.698 268.912 584.802C269.152 583.899 269.272 582.971 269.272 582.016V580.961H266.513V579.379H273.72V580.961H271.153V582.016ZM295.924 593.582H293.956V577.674H295.924V593.582ZM285.501 582.947H289.35V578.975H291.284V589.838H283.549V578.975H285.501V582.947ZM289.35 588.238V584.477H285.501V588.238H289.35Z" fill="white"/>
<path d="M218 732C218 726.477 222.477 722 228 722H318C323.523 722 328 726.477 328 732V747C328 752.523 323.523 757 318 757H218V732Z" fill="#F5C002"/>
<path d="M255.091 739.426H246.935V732.605H254.986V734.17H248.886V735.295H254.67V736.719H248.886V737.879H255.091V739.426ZM258.906 747.547H256.972V731.691H258.906V747.547ZM245.564 740.727C247.755 740.727 249.66 740.703 251.277 740.656C252.9 740.609 254.47 740.492 255.988 740.305L256.076 741.764C254.74 741.969 253.345 742.112 251.892 742.194V747.055H249.923V742.291C248.757 742.326 247.38 742.344 245.793 742.344L245.564 740.727ZM270.476 732.641C270.476 734 270.177 735.225 269.579 736.314C268.987 737.404 268.129 738.333 267.004 739.101C265.885 739.862 264.534 740.445 262.952 740.85L262.179 739.338C263.404 739.021 264.458 738.608 265.343 738.099C266.234 737.589 266.934 737.003 267.444 736.341C267.953 735.679 268.264 734.961 268.375 734.188H263.093V732.641H270.476ZM275.31 740.586H273.341V731.691H275.31V740.586ZM275.31 747.354H264.816V741.271H275.31V747.354ZM266.749 745.807H273.394V742.818H266.749V745.807ZM280.165 747.916H278.196L282.309 732.676H284.261L280.165 747.916ZM299.188 743.293H297.237V737.475H294.424V735.893H297.237V731.691H299.188V743.293ZM299.592 747.248H288.764V742.273H290.715V745.666H299.592V747.248ZM291.717 734.855C291.717 735.506 291.861 736.142 292.148 736.763C292.435 737.378 292.86 737.932 293.422 738.424C293.985 738.91 294.664 739.285 295.461 739.549L294.477 741.113C293.61 740.814 292.86 740.381 292.227 739.812C291.6 739.238 291.108 738.567 290.75 737.8C290.393 738.655 289.883 739.399 289.221 740.032C288.559 740.659 287.768 741.131 286.848 741.447L285.846 739.865C286.666 739.596 287.367 739.203 287.947 738.688C288.533 738.166 288.975 737.574 289.274 736.912C289.579 736.244 289.731 735.553 289.731 734.838V734.416H286.426V732.834H295.004V734.416H291.717V734.855Z" fill="white"/>
<path d="M608 293C608 287.477 612.477 283 618 283H708C713.523 283 718 287.477 718 293V318H608V293Z" fill="#387D9E"/>
<path d="M653.099 304.346H651.148V299.002H648.089V297.385H651.148V292.691H653.099V304.346ZM648.195 293.887C648.195 295.264 647.902 296.529 647.316 297.684C646.73 298.832 645.883 299.831 644.776 300.681C643.674 301.524 642.359 302.189 640.829 302.676L640.003 301.111C641.146 300.748 642.148 300.288 643.009 299.731C643.876 299.169 644.571 298.53 645.092 297.815C645.62 297.095 645.945 296.318 646.068 295.486H640.829V293.887H648.195ZM653.503 308.248H642.746V303.168H644.732V306.666H653.503V308.248ZM660.591 293.834C661.306 293.834 661.95 294.024 662.524 294.405C663.099 294.786 663.567 295.331 663.931 296.04C664.294 296.743 664.52 297.572 664.607 298.527H667.64V292.674H669.573V308.582H667.64V300.109H664.634C664.563 301.117 664.35 301.996 663.992 302.746C663.635 303.49 663.163 304.064 662.577 304.469C661.991 304.867 661.329 305.066 660.591 305.066C659.794 305.066 659.088 304.838 658.473 304.381C657.857 303.924 657.377 303.271 657.031 302.421C656.686 301.571 656.513 300.578 656.513 299.441C656.513 298.316 656.686 297.332 657.031 296.488C657.377 295.639 657.857 294.985 658.473 294.528C659.094 294.065 659.8 293.834 660.591 293.834ZM660.591 295.592C660.151 295.592 659.765 295.747 659.431 296.058C659.097 296.362 658.839 296.805 658.657 297.385C658.476 297.959 658.388 298.645 658.394 299.441C658.388 300.244 658.476 300.936 658.657 301.516C658.839 302.096 659.097 302.541 659.431 302.852C659.765 303.156 660.151 303.309 660.591 303.309C661.03 303.309 661.414 303.156 661.742 302.852C662.076 302.541 662.334 302.096 662.516 301.516C662.703 300.936 662.8 300.244 662.806 299.441C662.8 298.645 662.703 297.956 662.516 297.376C662.334 296.796 662.076 296.354 661.742 296.049C661.414 295.744 661.03 295.592 660.591 295.592ZM687.19 300.672H680.897V301.867H685.379V305.77H676.344V306.93H685.819V308.424H674.428V304.363H683.463V303.344H674.411V301.867H678.946V300.672H672.706V299.125H687.19V300.672ZM685.327 298.123H674.534V293.166H685.327V298.123ZM676.45 296.594H683.376V294.695H676.45V296.594Z" fill="white"/>
<path d="M738 293C738 287.477 742.477 283 748 283H838C843.523 283 848 287.477 848 293V318H738V293Z" fill="#588B49"/>
<path d="M755.373 296.066C755.373 296.652 755.522 297.221 755.821 297.771C756.12 298.322 756.56 298.812 757.14 299.239C757.72 299.661 758.414 299.98 759.223 300.197L758.309 301.709C757.406 301.463 756.627 301.088 755.971 300.584C755.314 300.074 754.799 299.468 754.424 298.765C754.072 299.562 753.565 300.25 752.903 300.83C752.241 301.41 751.447 301.838 750.521 302.113L749.607 300.602C750.41 300.355 751.099 300.001 751.673 299.538C752.247 299.069 752.681 298.536 752.974 297.938C753.272 297.335 753.422 296.711 753.422 296.066V295.979H750.1V294.432H753.422V292.604H755.391V294.432H758.695V295.979H755.373V296.066ZM762.967 302.289H761.016V298.615H758.221V297.033H761.016V292.674H762.967V302.289ZM757.588 302.605C758.707 302.605 759.674 302.723 760.488 302.957C761.303 303.186 761.927 303.522 762.36 303.968C762.8 304.407 763.02 304.938 763.02 305.559C763.02 306.186 762.8 306.722 762.36 307.167C761.927 307.618 761.303 307.961 760.488 308.195C759.674 308.43 758.707 308.547 757.588 308.547C756.475 308.547 755.511 308.43 754.696 308.195C753.888 307.961 753.267 307.618 752.833 307.167C752.399 306.722 752.186 306.186 752.191 305.559C752.186 304.938 752.399 304.407 752.833 303.968C753.267 303.522 753.888 303.186 754.696 302.957C755.511 302.723 756.475 302.605 757.588 302.605ZM757.588 304.1C756.469 304.111 755.61 304.24 755.013 304.486C754.421 304.732 754.125 305.09 754.125 305.559C754.125 306.033 754.424 306.399 755.021 306.657C755.625 306.909 756.48 307.035 757.588 307.035C758.713 307.035 759.574 306.909 760.172 306.657C760.77 306.399 761.068 306.033 761.068 305.559C761.068 305.084 760.77 304.727 760.172 304.486C759.58 304.24 758.719 304.111 757.588 304.1ZM774.994 295.451C774.994 296.494 774.967 297.481 774.915 298.413C774.868 299.339 774.748 300.402 774.554 301.604L772.621 301.445C772.791 300.367 772.902 299.395 772.955 298.527C773.013 297.66 773.046 296.781 773.051 295.891H766.82V294.326H774.994V295.451ZM770.986 303.555C772.791 303.484 774.39 303.361 775.785 303.186L775.89 304.645C773.441 305.031 770.441 305.225 766.89 305.225H766.17L765.976 303.66C767.347 303.648 768.373 303.634 769.052 303.616V298.861H770.986V303.555ZM778.58 299.143H780.882V300.795H778.58V308.564H776.611V292.674H778.58V299.143ZM784.208 308.916H782.239L786.353 293.676H788.304L784.208 308.916ZM802.774 298.387H798.134V300.127H804.427V301.727H789.925V300.127H796.2V298.387H791.805V292.955H793.757V296.805H802.774V298.387ZM797.149 302.676C798.292 302.682 799.273 302.802 800.094 303.036C800.914 303.265 801.544 303.599 801.983 304.038C802.423 304.472 802.645 304.996 802.651 305.611C802.645 306.227 802.423 306.754 801.983 307.193C801.544 307.633 800.911 307.967 800.085 308.195C799.264 308.43 798.286 308.547 797.149 308.547C796.001 308.547 795.011 308.43 794.179 308.195C793.346 307.967 792.711 307.633 792.271 307.193C791.832 306.754 791.612 306.227 791.612 305.611C791.612 304.996 791.832 304.472 792.271 304.038C792.711 303.599 793.344 303.265 794.17 303.036C795.002 302.802 795.995 302.682 797.149 302.676ZM797.149 304.188C795.989 304.188 795.104 304.311 794.495 304.557C793.891 304.797 793.593 305.148 793.598 305.611C793.587 306.068 793.886 306.42 794.495 306.666C795.104 306.912 795.989 307.035 797.149 307.035C798.28 307.035 799.15 306.912 799.76 306.666C800.375 306.42 800.688 306.068 800.7 305.611C800.694 305.148 800.384 304.797 799.768 304.557C799.159 304.311 798.286 304.188 797.149 304.188ZM812.077 295.486C812.071 296.189 812.211 296.866 812.498 297.517C812.791 298.161 813.225 298.732 813.799 299.23C814.373 299.729 815.065 300.109 815.873 300.373L814.854 301.92C813.987 301.627 813.24 301.196 812.613 300.628C811.992 300.054 811.502 299.377 811.145 298.598C810.782 299.459 810.272 300.203 809.616 300.83C808.965 301.457 808.186 301.932 807.278 302.254L806.188 300.707C807.037 300.432 807.755 300.03 808.341 299.503C808.927 298.97 809.367 298.357 809.66 297.666C809.958 296.969 810.108 296.236 810.108 295.469V293.658H812.077V295.486ZM818.914 297.367H821.129V299.02H818.914V304.346H816.963V292.674H818.914V297.367ZM819.547 308.248H808.737V303.203H810.741V306.666H819.547V308.248ZM837.322 300.672H831.029V301.867H835.512V305.77H826.477V306.93H835.951V308.424H824.561V304.363H833.596V303.344H824.543V301.867H829.078V300.672H822.838V299.125H837.322V300.672ZM835.459 298.123H824.666V293.166H835.459V298.123ZM826.582 296.594H833.508V294.695H826.582V296.594Z" fill="white"/>
<path d="M608 139C608 133.477 612.477 129 618 129H708C713.523 129 718 133.477 718 139V154C718 159.523 713.523 164 708 164H608V139Z" fill="#3E2214"/>
<path d="M654.277 149.115H647.966V154.547H646.033V149.115H639.792V147.533H654.277V149.115ZM652.941 141.117H648.168C648.209 141.697 648.458 142.257 648.915 142.796C649.372 143.329 649.999 143.786 650.796 144.167C651.593 144.548 652.501 144.803 653.521 144.932L652.818 146.461C651.47 146.273 650.289 145.887 649.276 145.301C648.268 144.715 647.521 143.988 647.035 143.121C646.548 143.982 645.801 144.709 644.793 145.301C643.786 145.887 642.617 146.273 641.287 146.461L640.548 144.932C641.562 144.803 642.464 144.548 643.255 144.167C644.052 143.786 644.679 143.329 645.136 142.796C645.599 142.257 645.854 141.697 645.901 141.117H641.128V139.57H652.941V141.117ZM661.839 143.719C661.839 144.516 661.985 145.31 662.278 146.101C662.577 146.892 663.011 147.612 663.579 148.263C664.147 148.913 664.827 149.426 665.618 149.801L664.528 151.277C663.69 150.885 662.961 150.319 662.34 149.581C661.725 148.843 661.244 147.996 660.898 147.041C660.541 148.072 660.034 148.983 659.378 149.774C658.728 150.565 657.96 151.16 657.075 151.559L656.003 150.047C656.812 149.684 657.509 149.165 658.095 148.491C658.687 147.817 659.135 147.064 659.439 146.232C659.75 145.4 659.905 144.562 659.905 143.719V142.893H656.513V141.328H659.905V139.008H661.856V141.328H665.196V142.893H661.839V143.719ZM668.694 144.967H671.138V146.602H668.694V154.564H666.743V138.674H668.694V144.967ZM678.401 141.539C678.401 142.201 678.542 142.831 678.823 143.429C679.11 144.026 679.535 144.557 680.097 145.02C680.66 145.477 681.342 145.828 682.145 146.074L681.213 147.604C680.34 147.334 679.585 146.93 678.946 146.391C678.313 145.852 677.818 145.216 677.461 144.483C677.103 145.333 676.59 146.071 675.922 146.698C675.254 147.325 674.452 147.797 673.514 148.113L672.53 146.566C673.362 146.291 674.071 145.898 674.657 145.389C675.243 144.873 675.685 144.284 675.984 143.622C676.283 142.96 676.432 142.271 676.432 141.557V141.363H673.075V139.781H681.706V141.363H678.401V141.539ZM685.239 142.488H687.454V144.088H685.239V148.148H683.288V138.674H685.239V142.488ZM680.071 148.5C681.161 148.5 682.104 148.62 682.901 148.86C683.704 149.095 684.319 149.438 684.747 149.889C685.174 150.34 685.391 150.879 685.397 151.506C685.391 152.139 685.171 152.684 684.738 153.141C684.31 153.598 683.698 153.946 682.901 154.187C682.104 154.427 681.161 154.547 680.071 154.547C678.969 154.547 678.014 154.427 677.206 154.187C676.397 153.946 675.776 153.598 675.342 153.141C674.909 152.684 674.692 152.139 674.692 151.506C674.692 150.879 674.909 150.34 675.342 149.889C675.776 149.438 676.397 149.095 677.206 148.86C678.014 148.62 678.969 148.5 680.071 148.5ZM680.071 150.029C678.975 150.029 678.129 150.155 677.531 150.407C676.939 150.659 676.643 151.025 676.643 151.506C676.643 151.998 676.939 152.373 677.531 152.631C678.129 152.889 678.975 153.018 680.071 153.018C681.167 153.018 682.004 152.889 682.585 152.631C683.171 152.373 683.463 151.998 683.463 151.506C683.463 151.025 683.171 150.659 682.585 150.407C682.004 150.155 681.167 150.029 680.071 150.029Z" fill="white"/>
</svg>
