<svg width="826" height="703" viewBox="0 0 826 703" fill="none" xmlns="http://www.w3.org/2000/svg">
<g clip-path="url(#clip0_512_723)">
<rect width="826" height="703" fill="white"/>
<path d="M517 1C525.284 1 532 7.71573 532 16V94C532 102.284 525.284 109 517 109H34V1H517Z" stroke="#2C2C2C" stroke-width="2"/>
<path d="M647 440C655.284 440 662 446.716 662 455V533C662 541.284 655.284 548 647 548H179C170.716 548 164 541.284 164 533V440H647Z" stroke="#2C2C2C" stroke-width="2"/>
<path d="M647 594C655.284 594 662 600.716 662 609V687C662 695.284 655.284 702 647 702H179C170.716 702 164 695.284 164 687V594H647Z" stroke="#2C2C2C" stroke-width="2"/>
<path d="M569 1H792V109H569C560.716 109 554 102.284 554 94V16C554 7.71573 560.716 1 569 1Z" stroke="#2C2C2C" stroke-width="2"/>
<path d="M699 156H792V687C792 695.284 785.284 702 777 702H699C690.716 702 684 695.284 684 687V171C684 162.716 690.716 156 699 156Z" stroke="#2C2C2C" stroke-width="2"/>
<path d="M127 156C135.284 156 142 162.716 142 171V687C142 695.284 135.284 702 127 702H49C40.7157 702 34 695.284 34 687V156H127Z" stroke="#2C2C2C" stroke-width="2"/>
<path d="M10 110C4.47716 110 8.8642e-06 105.523 8.62279e-06 100L4.68877e-06 10C4.44736e-06 4.47715 4.47716 -1.95703e-07 10 -4.37114e-07L35 -1.5299e-06L35 110L10 110Z" fill="#387D9E"/>
<path d="M14.5908 26.834C16.7354 26.834 18.3262 28.627 18.6074 31.5273H21.6396V25.6738H23.5732V41.582H21.6396V33.1094H18.625C18.4141 36.1768 16.7969 38.0664 14.5908 38.0664C12.2002 38.0664 10.5039 35.8955 10.5127 32.4414C10.5039 29.0137 12.2002 26.834 14.5908 26.834ZM12.3936 32.4414C12.3848 34.8848 13.2812 36.2998 14.5908 36.3086C15.9092 36.2998 16.7969 34.8848 16.8057 32.4414C16.7969 30.0156 15.9092 28.5918 14.5908 28.5918C13.2812 28.5918 12.3848 30.0156 12.3936 32.4414ZM16.2607 50.4883C16.2432 53.4062 17.7812 56.3242 20.3564 57.4316L19.1963 58.9961C17.3682 58.1523 16.0322 56.4736 15.2939 54.3994C14.5645 56.6318 13.1934 58.46 11.2686 59.3652L10.0732 57.7305C12.7188 56.5879 14.2656 53.5557 14.2744 50.4883V47.957H16.2607V50.4883ZM21.499 62.582V46.6738H23.4678V62.582H21.499ZM15.9443 70.5391C15.9443 72.4814 17.2012 74.3096 19.6885 75.0742L18.7568 76.6035C16.9727 76.041 15.707 74.9072 15.0127 73.4746C14.3096 75.1445 12.9736 76.4717 11.0576 77.1133L10.0732 75.5664C12.6309 74.7314 13.9756 72.666 13.9756 70.5566V70.3633H10.6182V68.7812H19.249V70.3633H15.9443V70.5391ZM12.2354 80.5059C12.2354 78.6074 14.292 77.5 17.6143 77.5C20.9102 77.5 22.9316 78.6074 22.9404 80.5059C22.9316 82.4219 20.9102 83.5469 17.6143 83.5469C14.292 83.5469 12.2354 82.4219 12.2354 80.5059ZM14.1865 80.5059C14.1865 81.4902 15.4346 82.0088 17.6143 82.0176C19.7852 82.0088 21.0068 81.4902 21.0068 80.5059C21.0068 79.5391 19.7852 79.0293 17.6143 79.0293C15.4346 79.0293 14.1865 79.5391 14.1865 80.5059ZM20.8311 77.1484V67.6738H22.7822V71.4883H24.9971V73.0879H22.7822V77.1484H20.8311Z" fill="white"/>
<path d="M0 165C0 159.477 4.47715 155 10 155H35V265H10C4.47715 265 0 260.523 0 255V165Z" fill="#EF5302"/>
<path d="M24.0557 190.834V196.582H22.1045V192.398H13.2275V190.834H24.0557ZM11.4346 189.129V181.834H18.9053V184.541H22.1045V180.674H24.0557V190.061H22.1045V186.123H18.9053V189.129H11.4346ZM13.3857 187.582H16.9717V183.416H13.3857V187.582ZM24.0557 201.674V217.564H22.1045V209.479H18.7471V207.879H22.1045V201.674H24.0557ZM10.6436 213.17C14.7568 211.148 16.5234 208.468 16.8486 204.908H11.3818V203.361H18.8174C18.7998 208.055 17.1387 212.001 11.6631 214.699L10.6436 213.17ZM23.9854 222.674V238.582H22.0518V222.674H23.9854ZM11.6104 225.645V224.062H19.0986V230.021H13.6318V233.221C16.1367 233.203 18.29 233.071 20.7686 232.658L20.9443 234.258C18.2461 234.724 15.873 234.829 13.0166 234.82H11.6279V228.475H17.1123V225.645H11.6104Z" fill="white"/>
<path d="M163 416C163 410.477 167.477 406 173 406H263C268.523 406 273 410.477 273 416V441H163V416Z" fill="#F5C002"/>
<path d="M203.072 416.992C203.072 417.66 203.306 418.311 203.775 418.943C204.249 419.576 204.912 420.118 205.761 420.569C206.617 421.021 207.595 421.316 208.697 421.457L207.923 423.039C206.587 422.84 205.404 422.43 204.372 421.809C203.341 421.182 202.565 420.417 202.043 419.515C201.522 420.417 200.748 421.182 199.723 421.809C198.698 422.43 197.523 422.84 196.199 423.039L195.425 421.457C196.515 421.316 197.485 421.021 198.334 420.569C199.184 420.118 199.843 419.576 200.312 418.943C200.781 418.311 201.015 417.66 201.015 416.992V416.184H203.072V416.992ZM209.277 426.027H202.966V431.564H201.033V426.027H194.792V424.41H209.277V426.027ZM224.925 431.564H223.062V415.674H224.925V431.564ZM221.69 430.791H219.845V422.793H217.56V421.211H219.845V415.973H221.69V430.791ZM216.153 420.016C216.153 420.947 216.268 421.841 216.496 422.696C216.73 423.552 217.088 424.328 217.568 425.025C218.055 425.723 218.661 426.279 219.388 426.695L218.228 428.137C217.513 427.709 216.906 427.138 216.408 426.423C215.91 425.702 215.518 424.873 215.23 423.936C214.943 424.949 214.542 425.852 214.026 426.643C213.511 427.428 212.89 428.049 212.163 428.506L210.968 427.047C211.706 426.602 212.321 426.007 212.813 425.263C213.312 424.519 213.678 423.698 213.912 422.802C214.152 421.899 214.272 420.971 214.272 420.016V418.961H211.513V417.379H218.72V418.961H216.153V420.016ZM240.924 431.582H238.956V415.674H240.924V431.582ZM230.501 420.947H234.35V416.975H236.284V427.838H228.549V416.975H230.501V420.947ZM234.35 426.238V422.477H230.501V426.238H234.35Z" fill="white"/>
<path d="M163 570C163 564.477 167.477 560 173 560H263C268.523 560 273 564.477 273 570V595H163V570Z" fill="#F5C002"/>
<path d="M200.091 577.426H191.935V570.605H199.986V572.17H193.886V573.295H199.67V574.719H193.886V575.879H200.091V577.426ZM203.906 585.547H201.972V569.691H203.906V585.547ZM190.564 578.727C192.755 578.727 194.66 578.703 196.277 578.656C197.9 578.609 199.47 578.492 200.988 578.305L201.076 579.764C199.74 579.969 198.345 580.112 196.892 580.194V585.055H194.923V580.291C193.757 580.326 192.38 580.344 190.793 580.344L190.564 578.727ZM215.476 570.641C215.476 572 215.177 573.225 214.579 574.314C213.987 575.404 213.129 576.333 212.004 577.101C210.885 577.862 209.534 578.445 207.952 578.85L207.179 577.338C208.404 577.021 209.458 576.608 210.343 576.099C211.234 575.589 211.934 575.003 212.444 574.341C212.953 573.679 213.264 572.961 213.375 572.188H208.093V570.641H215.476ZM220.31 578.586H218.341V569.691H220.31V578.586ZM220.31 585.354H209.816V579.271H220.31V585.354ZM211.749 583.807H218.394V580.818H211.749V583.807ZM225.165 585.916H223.196L227.309 570.676H229.261L225.165 585.916ZM244.188 581.293H242.237V575.475H239.424V573.893H242.237V569.691H244.188V581.293ZM244.592 585.248H233.764V580.273H235.715V583.666H244.592V585.248ZM236.717 572.855C236.717 573.506 236.861 574.142 237.148 574.763C237.435 575.378 237.86 575.932 238.422 576.424C238.985 576.91 239.664 577.285 240.461 577.549L239.477 579.113C238.61 578.814 237.86 578.381 237.227 577.812C236.6 577.238 236.108 576.567 235.75 575.8C235.393 576.655 234.883 577.399 234.221 578.032C233.559 578.659 232.768 579.131 231.848 579.447L230.846 577.865C231.666 577.596 232.367 577.203 232.947 576.688C233.533 576.166 233.975 575.574 234.274 574.912C234.579 574.244 234.731 573.553 234.731 572.838V572.416H231.426V570.834H240.004V572.416H236.717V572.855Z" fill="white"/>
<path d="M791 155H816C821.523 155 826 159.477 826 165V318C826 323.523 821.523 328 816 328H791V155Z" fill="#588B49"/>
<path d="M807.462 184.066C807.462 184.652 807.611 185.221 807.91 185.771C808.209 186.322 808.648 186.812 809.229 187.239C809.809 187.661 810.503 187.98 811.312 188.197L810.397 189.709C809.495 189.463 808.716 189.088 808.06 188.584C807.403 188.074 806.888 187.468 806.513 186.765C806.161 187.562 805.654 188.25 804.992 188.83C804.33 189.41 803.536 189.838 802.61 190.113L801.696 188.602C802.499 188.355 803.188 188.001 803.762 187.538C804.336 187.069 804.77 186.536 805.062 185.938C805.361 185.335 805.511 184.711 805.511 184.066V183.979H802.188V182.432H805.511V180.604H807.479V182.432H810.784V183.979H807.462V184.066ZM815.056 190.289H813.104V186.615H810.31V185.033H813.104V180.674H815.056V190.289ZM809.677 190.605C810.796 190.605 811.763 190.723 812.577 190.957C813.392 191.186 814.016 191.522 814.449 191.968C814.889 192.407 815.108 192.938 815.108 193.559C815.108 194.186 814.889 194.722 814.449 195.167C814.016 195.618 813.392 195.961 812.577 196.195C811.763 196.43 810.796 196.547 809.677 196.547C808.563 196.547 807.6 196.43 806.785 196.195C805.977 195.961 805.355 195.618 804.922 195.167C804.488 194.722 804.274 194.186 804.28 193.559C804.274 192.938 804.488 192.407 804.922 191.968C805.355 191.522 805.977 191.186 806.785 190.957C807.6 190.723 808.563 190.605 809.677 190.605ZM809.677 192.1C808.558 192.111 807.699 192.24 807.102 192.486C806.51 192.732 806.214 193.09 806.214 193.559C806.214 194.033 806.513 194.399 807.11 194.657C807.714 194.909 808.569 195.035 809.677 195.035C810.802 195.035 811.663 194.909 812.261 194.657C812.858 194.399 813.157 194.033 813.157 193.559C813.157 193.084 812.858 192.727 812.261 192.486C811.669 192.24 810.808 192.111 809.677 192.1ZM810.626 204.451C810.626 205.494 810.6 206.481 810.547 207.413C810.5 208.339 810.38 209.402 810.187 210.604L808.253 210.445C808.423 209.367 808.534 208.395 808.587 207.527C808.646 206.66 808.678 205.781 808.684 204.891H802.452V203.326H810.626V204.451ZM806.618 212.555C808.423 212.484 810.022 212.361 811.417 212.186L811.522 213.645C809.073 214.031 806.073 214.225 802.522 214.225H801.802L801.608 212.66C802.979 212.648 804.005 212.634 804.685 212.616V207.861H806.618V212.555ZM814.212 208.143H816.515V209.795H814.212V217.564H812.243V201.674H814.212V208.143ZM807.937 238.916H805.968L810.081 223.676H812.032L807.937 238.916ZM814.599 249.387H809.958V251.127H816.251V252.727H801.749V251.127H808.024V249.387H803.63V243.955H805.581V247.805H814.599V249.387ZM808.974 253.676C810.116 253.682 811.098 253.802 811.918 254.036C812.738 254.265 813.368 254.599 813.808 255.038C814.247 255.472 814.47 255.996 814.476 256.611C814.47 257.227 814.247 257.754 813.808 258.193C813.368 258.633 812.735 258.967 811.909 259.195C811.089 259.43 810.11 259.547 808.974 259.547C807.825 259.547 806.835 259.43 806.003 259.195C805.171 258.967 804.535 258.633 804.096 258.193C803.656 257.754 803.437 257.227 803.437 256.611C803.437 255.996 803.656 255.472 804.096 255.038C804.535 254.599 805.168 254.265 805.994 254.036C806.826 253.802 807.819 253.682 808.974 253.676ZM808.974 255.188C807.813 255.188 806.929 255.311 806.319 255.557C805.716 255.797 805.417 256.148 805.423 256.611C805.411 257.068 805.71 257.42 806.319 257.666C806.929 257.912 807.813 258.035 808.974 258.035C810.104 258.035 810.975 257.912 811.584 257.666C812.199 257.42 812.513 257.068 812.524 256.611C812.519 256.148 812.208 255.797 811.593 255.557C810.983 255.311 810.11 255.188 808.974 255.188ZM807.444 267.486C807.438 268.189 807.579 268.866 807.866 269.517C808.159 270.161 808.593 270.732 809.167 271.23C809.741 271.729 810.433 272.109 811.241 272.373L810.222 273.92C809.354 273.627 808.607 273.196 807.98 272.628C807.359 272.054 806.87 271.377 806.513 270.598C806.149 271.459 805.64 272.203 804.983 272.83C804.333 273.457 803.554 273.932 802.646 274.254L801.556 272.707C802.405 272.432 803.123 272.03 803.709 271.503C804.295 270.97 804.734 270.357 805.027 269.666C805.326 268.969 805.476 268.236 805.476 267.469V265.658H807.444V267.486ZM814.282 269.367H816.497V271.02H814.282V276.346H812.331V264.674H814.282V269.367ZM814.915 280.248H804.104V275.203H806.108V278.666H814.915V280.248ZM816.233 293.672H809.94V294.867H814.423V298.77H805.388V299.93H814.862V301.424H803.472V297.363H812.507V296.344H803.454V294.867H807.989V293.672H801.749V292.125H816.233V293.672ZM814.37 291.123H803.577V286.166H814.37V291.123ZM805.493 289.594H812.419V287.695H805.493V289.594Z" fill="white"/>
<path d="M816 -7.29527e-06C821.523 -7.05386e-06 826 4.47715 826 9.99999L826 100C826 105.523 821.523 110 816 110L791 110L791 -8.38806e-06L816 -7.29527e-06Z" fill="#3E2214"/>
<path d="M815.733 34.5332V36.1152H809.423V41.5469H807.489V36.1152H801.249V34.5332H815.733ZM802.005 31.9316C805.125 31.5361 807.217 29.8574 807.357 28.1172H802.585V26.5703H814.397V28.1172H809.625C809.757 29.8574 811.831 31.5361 814.978 31.9316L814.274 33.4609C811.567 33.0742 809.458 31.835 808.491 30.1211C807.516 31.835 805.424 33.0742 802.743 33.4609L802.005 31.9316ZM806.839 51.7188C806.839 54.0742 808.166 56.6406 810.618 57.8008L809.528 59.2773C807.806 58.4863 806.566 56.9043 805.898 55.0498C805.204 57.0537 803.895 58.7412 802.075 59.5586L801.003 58.0469C803.508 56.9219 804.905 54.2148 804.905 51.7188V50.8926H801.513V49.3281H804.905V47.0078H806.856V49.3281H810.196V50.8926H806.839V51.7188ZM811.743 62.5645V46.6738H813.694V52.9668H816.138V54.6016H813.694V62.5645H811.743ZM806.944 70.5391C806.944 72.4814 808.201 74.3096 810.688 75.0742L809.757 76.6035C807.973 76.041 806.707 74.9072 806.013 73.4746C805.31 75.1445 803.974 76.4717 802.058 77.1133L801.073 75.5664C803.631 74.7314 804.976 72.666 804.976 70.5566V70.3633H801.618V68.7812H810.249V70.3633H806.944V70.5391ZM803.235 80.5059C803.235 78.6074 805.292 77.5 808.614 77.5C811.91 77.5 813.932 78.6074 813.94 80.5059C813.932 82.4219 811.91 83.5469 808.614 83.5469C805.292 83.5469 803.235 82.4219 803.235 80.5059ZM805.187 80.5059C805.187 81.4902 806.435 82.0088 808.614 82.0176C810.785 82.0088 812.007 81.4902 812.007 80.5059C812.007 79.5391 810.785 79.0293 808.614 79.0293C806.435 79.0293 805.187 79.5391 805.187 80.5059ZM811.831 77.1484V67.6738H813.782V71.4883H815.997V73.0879H813.782V77.1484H811.831Z" fill="white"/>
<path d="M517 156C525.284 156 532 162.716 532 171V249C532 257.284 525.284 264 517 264H301C284.984 264 272 276.984 272 293V379C272 387.284 265.284 394 257 394H179C170.716 394 164 387.284 164 379V156H517Z" stroke="#2C2C2C" stroke-width="2"/>
<path d="M647 394L309 394C300.716 394 294 387.284 294 379L294 301C294 292.716 300.716 286 309 286L525 286C541.016 286 554 273.016 554 257L554 156L662 156L662 379C662 387.284 655.284 394 647 394Z" stroke="#2C2C2C" stroke-width="2"/>
<path d="M553 132C553 126.477 557.477 122 563 122H653C658.523 122 663 126.477 663 132V157H553V132Z" fill="#387D9E"/>
<path d="M598.099 143.346H596.148V138.002H593.089V136.385H596.148V131.691H598.099V143.346ZM593.195 132.887C593.195 134.264 592.902 135.529 592.316 136.684C591.73 137.832 590.883 138.831 589.776 139.681C588.674 140.524 587.359 141.189 585.829 141.676L585.003 140.111C586.146 139.748 587.148 139.288 588.009 138.731C588.876 138.169 589.571 137.53 590.092 136.815C590.62 136.095 590.945 135.318 591.068 134.486H585.829V132.887H593.195ZM598.503 147.248H587.746V142.168H589.732V145.666H598.503V147.248ZM605.591 132.834C606.306 132.834 606.95 133.024 607.524 133.405C608.099 133.786 608.567 134.331 608.931 135.04C609.294 135.743 609.52 136.572 609.607 137.527H612.64V131.674H614.573V147.582H612.64V139.109H609.634C609.563 140.117 609.35 140.996 608.992 141.746C608.635 142.49 608.163 143.064 607.577 143.469C606.991 143.867 606.329 144.066 605.591 144.066C604.794 144.066 604.088 143.838 603.473 143.381C602.857 142.924 602.377 142.271 602.031 141.421C601.686 140.571 601.513 139.578 601.513 138.441C601.513 137.316 601.686 136.332 602.031 135.488C602.377 134.639 602.857 133.985 603.473 133.528C604.094 133.065 604.8 132.834 605.591 132.834ZM605.591 134.592C605.151 134.592 604.765 134.747 604.431 135.058C604.097 135.362 603.839 135.805 603.657 136.385C603.476 136.959 603.388 137.645 603.394 138.441C603.388 139.244 603.476 139.936 603.657 140.516C603.839 141.096 604.097 141.541 604.431 141.852C604.765 142.156 605.151 142.309 605.591 142.309C606.03 142.309 606.414 142.156 606.742 141.852C607.076 141.541 607.334 141.096 607.516 140.516C607.703 139.936 607.8 139.244 607.806 138.441C607.8 137.645 607.703 136.956 607.516 136.376C607.334 135.796 607.076 135.354 606.742 135.049C606.414 134.744 606.03 134.592 605.591 134.592ZM632.19 139.672H625.897V140.867H630.379V144.77H621.344V145.93H630.819V147.424H619.428V143.363H628.463V142.344H619.411V140.867H623.946V139.672H617.706V138.125H632.19V139.672ZM630.327 137.123H619.534V132.166H630.327V137.123ZM621.45 135.594H628.376V133.695H621.45V135.594Z" fill="white"/>
<path d="M163 132C163 126.477 167.477 122 173 122H263C268.523 122 273 126.477 273 132V157H163V132Z" fill="#387D9E"/>
<path d="M203.669 134.451C203.669 135.494 203.643 136.481 203.59 137.413C203.543 138.339 203.423 139.402 203.23 140.604L201.296 140.445C201.466 139.367 201.578 138.395 201.63 137.527C201.689 136.66 201.721 135.781 201.727 134.891H195.496V133.326H203.669V134.451ZM199.662 142.555C201.466 142.484 203.066 142.361 204.46 142.186L204.566 143.645C202.117 144.031 199.117 144.225 195.566 144.225H194.845L194.652 142.66C196.023 142.648 197.048 142.634 197.728 142.616V137.861H199.662V142.555ZM207.255 138.143H209.558V139.795H207.255V147.564H205.287V131.674H207.255V138.143ZM217.981 137.527H219.827V131.955H221.69V146.791H219.827V139.109H217.981V143.469H211.741V133.396H217.981V137.527ZM213.569 141.922H216.153V134.943H213.569V141.922ZM224.96 147.564H223.079V131.674H224.96V147.564ZM240.977 147.564H239.008V131.674H240.977V147.564ZM236.231 133.361C236.231 135.887 235.66 138.104 234.517 140.015C233.375 141.919 231.479 143.498 228.831 144.752L227.811 143.188C229.856 142.215 231.394 141.052 232.425 139.698C233.463 138.339 234.069 136.742 234.245 134.908H228.62V133.361H236.231Z" fill="white"/>
</g>
<defs>
<clipPath id="clip0_512_723">
<rect width="826" height="703" fill="white"/>
</clipPath>
</defs>
</svg>
