
<svg width="480" height="78" viewBox="0 0 480 78" fill="none" xmlns="http://www.w3.org/2000/svg">
<path d="M6.30273 11H59V77H6.30273C4.10391 76.9997 2.65258 74.7123 3.58887 72.7227L16.1035 46.1289C16.738 44.7806 16.738 43.2194 16.1035 41.8711L3.58887 15.2773C2.65258 13.2877 4.10391 11.0003 6.30273 11Z" fill="#FFFDF5" stroke="#2C2C2C" stroke-width="2"/>
<path d="M473.697 11H421V77H473.697C475.896 76.9997 477.347 74.7123 476.411 72.7227L463.896 46.1289C463.262 44.7806 463.262 43.2194 463.896 41.8711L476.411 15.2773C477.347 13.2877 475.896 11.0003 473.697 11Z" fill="#FFFDF5" stroke="#2C2C2C" stroke-width="2"/>
<path d="M44 1H436C437.657 1 439 2.34315 439 4V67H41V4C41 2.34315 42.3431 1 44 1Z" fill="#FFFDF5" stroke="#2C2C2C" stroke-width="2"/>
<path d="M59 77L40 68H59V77Z" fill="#2C2C2C"/>
<path d="M421 77L440 68H421V77Z" fill="#2C2C2C"/>

</svg>
