<svg width="26" height="26" viewBox="0 0 26 26" fill="none" xmlns="http://www.w3.org/2000/svg">
<path fill-rule="evenodd" clip-rule="evenodd" d="M11.8959 2.00024C10.4772 2.00037 9.07916 2.33974 7.81832 2.99005C6.55747 3.64036 5.47044 4.58275 4.64789 5.7386C3.82535 6.89444 3.29116 8.23023 3.08988 9.6345C2.8886 11.0388 3.02607 12.4708 3.49083 13.8112C3.95559 15.1515 4.73415 16.3613 5.76156 17.3396C6.78898 18.3178 8.03545 19.0362 9.39698 19.4348C10.7585 19.8334 12.1956 19.9006 13.5884 19.6309C14.9812 19.3611 16.2893 18.7622 17.4036 17.8841L21.2261 21.7064C21.4235 21.8971 21.6879 22.0026 21.9623 22.0002C22.2367 21.9978 22.4992 21.8877 22.6933 21.6937C22.8874 21.4996 22.9975 21.2371 22.9998 20.9627C23.0022 20.6883 22.8967 20.4239 22.7061 20.2265L18.8836 16.4041C19.9177 15.0923 20.5616 13.5158 20.7415 11.8551C20.9215 10.1945 20.6303 8.51666 19.9012 7.01376C19.1721 5.51086 18.0346 4.24357 16.6189 3.35694C15.2031 2.4703 13.5664 2.00013 11.8959 2.00024ZM5.09249 10.8967C5.09249 9.09239 5.80927 7.36198 7.08517 6.08614C8.36106 4.81029 10.0915 4.09353 11.8959 4.09353C13.7003 4.09353 15.4308 4.81029 16.7067 6.08614C17.9826 7.36198 18.6994 9.09239 18.6994 10.8967C18.6994 12.701 17.9826 14.4314 16.7067 15.7073C15.4308 16.9831 13.7003 17.6999 11.8959 17.6999C10.0915 17.6999 8.36106 16.9831 7.08517 15.7073C5.80927 14.4314 5.09249 12.701 5.09249 10.8967Z" fill="#588B49"/>
</svg>
