<svg width="25" height="25" viewBox="0 0 25 25" fill="none" xmlns="http://www.w3.org/2000/svg">
<path d="M11.9731 0.961538C11.9731 0.706523 11.8718 0.461951 11.6914 0.281628C11.5111 0.101305 11.2666 0 11.0115 0C10.7565 0 10.512 0.101305 10.3316 0.281628C10.1513 0.461951 10.05 0.706523 10.05 0.961538V3.49744C10.05 3.75245 10.1513 3.99702 10.3316 4.17735C10.512 4.35767 10.7565 4.45897 11.0115 4.45897C11.2666 4.45897 11.5111 4.35767 11.6914 4.17735C11.8718 3.99702 11.9731 3.75245 11.9731 3.49744V0.961538ZM4.7859 3.45513C4.6055 3.2788 4.36305 3.18043 4.11079 3.18121C3.85854 3.182 3.6167 3.28188 3.43741 3.45932C3.25811 3.63676 3.15573 3.87755 3.15233 4.12979C3.14893 4.38202 3.24479 4.62548 3.41923 4.80769L5.30385 6.70897C5.39048 6.80694 5.49618 6.88621 5.61449 6.94193C5.73281 6.99764 5.86125 7.02864 5.99195 7.03302C6.12265 7.0374 6.25287 7.01507 6.37465 6.9674C6.49643 6.91973 6.60721 6.84772 6.7002 6.75577C6.7932 6.66382 6.86646 6.55387 6.91551 6.43264C6.96455 6.31141 6.98836 6.18145 6.98546 6.0507C6.98256 5.91996 6.95302 5.79118 6.89865 5.67224C6.84427 5.55331 6.76621 5.44671 6.66923 5.35897L4.7859 3.45513ZM18.6038 4.80769C18.7729 4.62463 18.8643 4.38308 18.8588 4.13395C18.8533 3.88481 18.7512 3.64756 18.5742 3.47218C18.3972 3.29681 18.1589 3.19701 17.9098 3.19383C17.6606 3.19065 17.4199 3.28433 17.2385 3.45513L15.3538 5.35769C15.2598 5.44618 15.1846 5.55269 15.1327 5.67087C15.0807 5.78905 15.0531 5.91649 15.0514 6.04558C15.0498 6.17467 15.0741 6.30277 15.1231 6.42224C15.172 6.54171 15.2445 6.65011 15.3362 6.74097C15.4279 6.83182 15.537 6.90328 15.6569 6.95107C15.7768 6.99887 15.9052 7.02202 16.0342 7.01916C16.1633 7.01629 16.2905 6.98746 16.4082 6.93439C16.5258 6.88132 16.6316 6.80509 16.7192 6.71026L18.6038 4.80769ZM12.2436 10.059C10.9295 9.54103 9.68718 10.85 10.1795 12.1231L14.7705 23.9821C15.2962 25.3385 17.2077 25.3397 17.7333 23.9821L19.4949 19.4397L23.9923 17.6641C25.3359 17.1333 25.3359 15.2244 23.9923 14.6936L12.2436 10.059ZM3.47436 10.1449H0.961538C0.706523 10.1449 0.461951 10.2462 0.281628 10.4265C0.101305 10.6068 0 10.8514 0 11.1064C0 11.3614 0.101305 11.606 0.281628 11.7863C0.461951 11.9666 0.706523 12.0679 0.961538 12.0679H3.47436C3.72937 12.0679 3.97395 11.9666 4.15427 11.7863C4.33459 11.606 4.4359 11.3614 4.4359 11.1064C4.4359 10.8514 4.33459 10.6068 4.15427 10.4265C3.97395 10.2462 3.72937 10.1449 3.47436 10.1449ZM6.66923 16.8551C6.84377 16.6731 6.93979 16.4297 6.93659 16.1775C6.93339 15.9253 6.83124 15.6845 6.65215 15.5069C6.47305 15.3293 6.23136 15.2292 5.97915 15.2282C5.72694 15.2271 5.48442 15.3252 5.30385 15.5013L3.41923 17.4038C3.33034 17.4936 3.25999 17.6 3.2122 17.7169C3.16441 17.8338 3.14012 17.959 3.14072 18.0853C3.14131 18.2116 3.16678 18.3366 3.21567 18.453C3.26456 18.5695 3.3359 18.6752 3.42564 18.7641C3.51538 18.853 3.62174 18.9233 3.73867 18.9711C3.85559 19.0189 3.98079 19.0432 4.1071 19.0426C4.23341 19.042 4.35837 19.0166 4.47483 18.9677C4.5913 18.9188 4.697 18.8474 4.7859 18.7577L6.66923 16.8551Z" fill="#70AE5D"/>
</svg>
